<svg id="Layer_1" data-name="Layer 1" xmlns="http://www.w3.org/2000/svg" xmlns:xlink="http://www.w3.org/1999/xlink" width="352" height="174" viewBox="0 0 352 174">
  <defs>
    <style>
      .cls-1 {
        fill: none;
      }

      .cls-2 {
        clip-path: url(#clip-path);
      }

      .cls-3 {
        clip-path: url(#clip-path-2);
      }

      .cls-11, .cls-4, .cls-7 {
        fill: #ff66c4;
      }

      .cls-4 {
        fill-opacity: 0.3;
      }

      .cls-5 {
        clip-path: url(#clip-path-4);
      }

      .cls-6 {
        clip-path: url(#clip-path-5);
      }

      .cls-7 {
        fill-opacity: 0.5;
      }

      .cls-8 {
        clip-path: url(#clip-path-7);
      }

      .cls-9 {
        clip-path: url(#clip-path-8);
      }

      .cls-10 {
        fill: #fff;
      }

      .cls-12 {
        clip-path: url(#clip-path-9);
      }

      .cls-13 {
        clip-path: url(#clip-path-10);
      }

      .cls-14 {
        clip-path: url(#clip-path-12);
      }

      .cls-15 {
        clip-path: url(#clip-path-13);
      }

      .cls-16 {
        clip-path: url(#clip-path-14);
      }

      .cls-17 {
        clip-path: url(#clip-path-15);
      }

      .cls-18 {
        clip-path: url(#clip-path-16);
      }

      .cls-19 {
        clip-path: url(#clip-path-17);
      }

      .cls-20 {
        clip-path: url(#clip-path-18);
      }

      .cls-21 {
        clip-path: url(#clip-path-19);
      }

      .cls-22 {
        clip-path: url(#clip-path-20);
      }

      .cls-23 {
        clip-path: url(#clip-path-21);
      }

      .cls-24 {
        clip-path: url(#clip-path-22);
      }

      .cls-25 {
        clip-path: url(#clip-path-23);
      }

      .cls-26 {
        clip-path: url(#clip-path-24);
      }

      .cls-27 {
        clip-path: url(#clip-path-25);
      }

      .cls-28 {
        clip-path: url(#clip-path-26);
      }

      .cls-29 {
        clip-path: url(#clip-path-27);
      }

      .cls-30 {
        clip-path: url(#clip-path-28);
      }

      .cls-31 {
        clip-path: url(#clip-path-29);
      }

      .cls-32 {
        clip-path: url(#clip-path-30);
      }

      .cls-33 {
        clip-path: url(#clip-path-31);
      }

      .cls-34 {
        clip-path: url(#clip-path-32);
      }

      .cls-35 {
        clip-path: url(#clip-path-33);
      }
    </style>
    <clipPath id="clip-path">
      <rect class="cls-1" x="237.4" y="44.2" width="32" height="33.3"/>
    </clipPath>
    <clipPath id="clip-path-2">
      <rect class="cls-1" x="236.18" y="43.51" width="33.9" height="33.9" transform="translate(101.62 272.06) rotate(-67.83)"/>
    </clipPath>
    <clipPath id="clip-path-4">
      <rect class="cls-1" x="235.9" y="43.7" width="32" height="33.3"/>
    </clipPath>
    <clipPath id="clip-path-5">
      <rect class="cls-1" x="234.84" y="43.02" width="33.9" height="33.9" transform="translate(101.24 270.51) rotate(-67.83)"/>
    </clipPath>
    <clipPath id="clip-path-7">
      <rect class="cls-1" x="61.7" y="145.1" width="15.6" height="5.3"/>
    </clipPath>
    <clipPath id="clip-path-8">
      <path class="cls-1" d="M62.3,147.6c3.8,1.6,5.3,1.7,6.9,1.4,2.3-.5,8-3.9,8.1-3.8s-5.7,4.2-8.1,4.8a9.88,9.88,0,0,1-4.6-.3c-1.1-.3-2.7-.8-2.8-1.3-.1-.3.5-.8.5-.8"/>
    </clipPath>
    <clipPath id="clip-path-9">
      <rect class="cls-1" x="234.3" y="43.7" width="32" height="33.3"/>
    </clipPath>
    <clipPath id="clip-path-10">
      <rect class="cls-1" x="233.25" y="43.03" width="33.9" height="33.9" transform="translate(100.23 269.04) rotate(-67.83)"/>
    </clipPath>
    <clipPath id="clip-path-12">
      <rect class="cls-1" x="45.3" y="63.1" width="0.7" height="0.6"/>
    </clipPath>
    <clipPath id="clip-path-13">
      <path class="cls-1" d="M46,63.3c-.9.4-.1-.2-.1-.2"/>
    </clipPath>
    <clipPath id="clip-path-14">
      <rect class="cls-1" x="57.9" y="50.3" width="13.2" height="6.2"/>
    </clipPath>
    <clipPath id="clip-path-15">
      <path class="cls-1" d="M58,52.8c4.2-2.5,6.6-2.3,8-2a4.41,4.41,0,0,1,2.5,1.1c1,.9,2.7,4.2,2.5,4.4s-3-3.8-4.8-4.5a8.35,8.35,0,0,0-5.4-.1c-1,.4-1.7,2-2.2,1.9-.3,0-.6-.8-.6-.8"/>
    </clipPath>
    <clipPath id="clip-path-16">
      <rect class="cls-1" x="14.4" y="118.4" width="3.3" height="19.7"/>
    </clipPath>
    <clipPath id="clip-path-17">
      <path class="cls-1" d="M17.7,118.8c0,7.7-2.7,19.2-3,19.2s.1-6.3.6-9c.4-2.2,1.5-4.1,1.7-6,.2-1.6-.7-4.1-.3-4.5.2-.1,1,.3,1,.3"/>
    </clipPath>
    <clipPath id="clip-path-18">
      <rect class="cls-1" x="83" y="82.3" width="12.2" height="11.3"/>
    </clipPath>
    <clipPath id="clip-path-19">
      <path class="cls-1" d="M93.4,92.9c.1-7.5-.9-9.1-2-9.5s-2.9.4-4.1,1.3c-1.6,1.1-4.1,5.4-4.1,5.4s.4-.7.6-.7.4.7.3.8a.94.94,0,0,1-.9-.4c-.2-.5.7-2.1,1.3-3.1a10.17,10.17,0,0,1,3-3.2,6.84,6.84,0,0,1,4.3-1,4.59,4.59,0,0,1,2.7,2.6c.7,1.4.5,3.9.4,5.4-.1,1.1-.3,2.7-.7,2.9-.2.1-.8-.5-.8-.5"/>
    </clipPath>
    <clipPath id="clip-path-20">
      <rect class="cls-1" x="95.4" y="114.7" width="3.3" height="4.7"/>
    </clipPath>
    <clipPath id="clip-path-21">
      <path class="cls-1" d="M95.4,118.7c5.9-6.8,2,.2.9.5-.4.1-.9-.5-.9-.5"/>
    </clipPath>
    <clipPath id="clip-path-22">
      <rect class="cls-1" x="137.3" y="108.5" width="5.7" height="18.8"/>
    </clipPath>
    <clipPath id="clip-path-23">
      <path class="cls-1" d="M139.5,108.7c-.3,13.3,3.5,18.2,3.3,18.4s-3.5-3.8-4.4-5.5a7.81,7.81,0,0,1-.9-3.4c-.2-2.3.2-8.5,1-9.4a1.91,1.91,0,0,1,1-.1"/>
    </clipPath>
    <clipPath id="clip-path-24">
      <rect class="cls-1" x="174.3" y="36" width="17.1" height="10"/>
    </clipPath>
    <clipPath id="clip-path-25">
      <path class="cls-1" d="M174.4,38.7c8.8-3.1,11.6-2.5,13.2-1.7a5.27,5.27,0,0,1,2.6,2.5c.8,1.5,1.3,5.6.8,6.3-.2.3-1,.1-1,.1h1s-.7.2-1-.1c-.6-.6.1-4.1-.5-5.5a4.91,4.91,0,0,0-2.2-2.3,12.05,12.05,0,0,0-6.4-1c-2.1.3-5.3,3-6.1,2.7-.3-.2-.4-1-.4-1"/>
    </clipPath>
    <clipPath id="clip-path-26">
      <rect class="cls-1" x="216.1" y="65.3" width="11.7" height="8.5"/>
    </clipPath>
    <clipPath id="clip-path-27">
      <path class="cls-1" d="M216.2,72.8c9.7-7.7,11.3-7.2,11.4-6.9s-.6.8-.6.8.8-.6.7-.7a3.22,3.22,0,0,0-2.3.2c-1.9.8-6.1,5.7-7.7,6.8-.6.4-1.2.8-1.4.7s-.1-.9-.1-.9"/>
    </clipPath>
    <clipPath id="clip-path-28">
      <rect class="cls-1" x="211.5" y="27.6" width="7.8" height="7.7"/>
    </clipPath>
    <clipPath id="clip-path-29">
      <path class="cls-1" d="M218.7,29.1c-4.1.1-6.9,6.2-7.1,6.1s1.8-5.8,3.3-6.8c1.1-.8,3.8-.7,4.1-.3.2.2-.3,1-.3,1"/>
    </clipPath>
    <clipPath id="clip-path-30">
      <rect class="cls-1" x="279.1" y="87.2" width="7.4" height="5.9"/>
    </clipPath>
    <clipPath id="clip-path-31">
      <path class="cls-1" d="M280.5,87.4c.6,4.7,4.6,2.4,5.4,2.8.3.1.5.8.5.8l-.5-.8s.5.7.3,1c-.4.7-4.4,1.9-5.5,1.2s-1.6-4.3-1.2-4.9c.2-.2,1-.1,1-.1"/>
    </clipPath>
    <clipPath id="clip-path-32">
      <rect class="cls-1" x="300" y="57.9" width="6.4" height="12.8"/>
    </clipPath>
    <clipPath id="clip-path-33">
      <path class="cls-1" d="M306.4,58.9c-4.4,5.5-6.2,11.9-6.4,11.8a39.78,39.78,0,0,1,2.3-8.6,12.64,12.64,0,0,1,2.4-3.2c.4-.4.9-1,1.2-.9s.5.9.5.9"/>
    </clipPath>
  </defs>
  <g class="cls-2">
    <g class="cls-3">
      <g class="cls-3">
        <path class="cls-4" d="M255.6,63.6c2.7-.5,6.6.8,13.2,3.3-6.5-2.9-10.1-4.6-11.7-6.9,1.2-1.2,3.3-2.3,6.5-3.9a32.62,32.62,0,0,1-7.3,1.9c-.5-2.7.8-6.6,3.3-13.2-2.9,6.5-4.6,10.1-6.9,11.7-1.2-1.2-2.3-3.3-3.9-6.5a32.62,32.62,0,0,1,1.9,7.3c-2.7.5-6.6-.8-13.2-3.3,6.5,2.9,10.1,4.6,11.7,6.9-1.2,1.2-3.3,2.3-6.5,3.9a32.62,32.62,0,0,1,7.3-1.9c.5,2.7-.8,6.6-3.3,13.2,2.9-6.5,4.6-10.1,6.9-11.7,1.2,1.2,2.3,3.3,3.9,6.5A32.62,32.62,0,0,1,255.6,63.6Z"/>
      </g>
    </g>
  </g>
  <g class="cls-5">
    <g class="cls-6">
      <g class="cls-6">
        <path class="cls-7" d="M254.2,63.1c2.7-.5,6.6.8,13.2,3.3-6.5-2.9-10.1-4.6-11.7-6.9,1.2-1.2,3.3-2.3,6.5-3.9a32.62,32.62,0,0,1-7.3,1.9c-.5-2.7.8-6.6,3.3-13.2-2.9,6.5-4.6,10.1-6.9,11.7-1.2-1.2-2.3-3.3-3.9-6.5a32.62,32.62,0,0,1,1.9,7.3c-2.7.5-6.6-.8-13.2-3.3,6.5,2.9,10.1,4.6,11.7,6.9-1.2,1.2-3.3,2.3-6.5,3.9a32.62,32.62,0,0,1,7.3-1.9c.5,2.7-.8,6.6-3.3,13.2,2.9-6.5,4.6-10.1,6.9-11.7,1.2,1.2,2.3,3.3,3.9,6.5A32.62,32.62,0,0,1,254.2,63.1Z"/>
      </g>
    </g>
  </g>
  <g class="cls-8">
    <g class="cls-9">
      <path class="cls-10" d="M57.9,141.3H81.3V154H57.9Z"/>
    </g>
  </g>
  <path class="cls-4" d="M65.68,51.77c-3.2,1.4-6.1,5.9-8.2,8.6-1.3,1.6-2.7,3.3-3.9,5.1-.8,1.2-3.1,3.7-3.1,5.2.1.1.1.1.2.1l-1.3,2.1a12.16,12.16,0,0,1,.8-1.7c-.5.3-1.1,2.3-1.1,2.3-2.5,4.3-5.5,8.3-7.8,12.8a119.43,119.43,0,0,0-6.4,15.4,130.8,130.8,0,0,1,3.2-15.1l-1.9,5.9.8-2.6a112.57,112.57,0,0,0-6.2,21.8A194.75,194.75,0,0,1,45,63.57c-.2.7-.5,1.6-.3,1.6.4.1,2.1-4.4,1.7-4.5l-.3.3a3.58,3.58,0,0,0-.1-3.6c-.9-1.7-2.9-4.5-5-3.2-1.3.7-2.2,3.5-2.6,4.6-.3.6-.3,1.5-.5,1.9-.4.7-1.1,1.1-1.6,2.1a48.3,48.3,0,0,0-2.5,7.6c-.4,1.4-4.7,15-4.5,15.1.2-.1.3-.4.4-.6-.2,1-.5,2-.8,3.1-.1-.1.2-.9,0-.9-1-.1-3.1,9.3-3.2,10.2a35.17,35.17,0,0,1-1.1,6.2,30.59,30.59,0,0,0-1,4.1c0,.1-.2,2.9.1,1.9a2.77,2.77,0,0,1-.1.9.4.4,0,0,0-.2-.4c-.3-.1-.6,3.2-.7,3.7-.6,1.7-1.2,3.5-1.7,5.3-1.1,4.8-1.2,9.5-1.7,14.4-.3,3.7-2,9.7.1,13.1,1.9,3.2,7.1,2.3,9.2-.5,0,.2.2.3.3.4.1-8.3,2.2-16.9,4.5-24.9.8,1.1.5,1.7,1.2,3,.8,2.1,2.5,3.8,3.7,5.6.5.8,6.6,9.7,6.8,9.6s-.1-.4-.1-.5a13,13,0,0,0,1.5,2c-.1,0-.4-.5-.6-.4-.8.8,4.6,6.6,5.2,6.9,1.4,1.3,2.6,2.4,3.8,3.7a11.23,11.23,0,0,0,2.3,2.1c.1.1,1.5.9,1.3.5.1.1.3.2.5.4a.35.35,0,0,0-.2-.1c-.1.3,5.8,4.6,6.2,4.8a10.82,10.82,0,0,0,6.6.9c6.1-1.3,10.2-7.2,13.1-12.1a4.13,4.13,0,0,0,.8-3.3c-.6-2.9-1.5-1.4-2.3-.2-1.6,2.2-4.8,4.8-7.6,5.1a7.51,7.51,0,0,1-3.3-.4c-.5-.2-4.5-2-4.5-1.9a3,3,0,0,0,.5.7c-2-1.3-4.3-3.8-6.3-5.5l-8.6-7.6c-1.1-1-9.3-10-12.9-14.6l4.2,5.7c-2.3-2.8-4.5-5.7-6.6-8.8,5.5-.4,11.4-5.4,15.5-8.8,3.7-3.2,6.2-7.9,9.2-12.2,6-8.1,11.4-17.8,12-28.3-.7,14.4-7.8,26.5-17.2,36.9,3-.6,6-5.1,8.1-7.9a69.06,69.06,0,0,0,6.3-9.6,46.23,46.23,0,0,0,4.8-12.5c.4-1.7,2.1-6.8,1.4-8.9,0,0-.2.8-.4,1.4a21.31,21.31,0,0,0-.3-5.6c.2.4.5,1,.4,1.2.2-.1-.1-1.5-.1-2.1,0,0-.2-.7-.1-.5C76.58,55.07,71.08,49.47,65.68,51.77ZM67.18,65c-.1.4-.1.3,0,.1.4,7.5-2.9,15.4-6.4,21.9a89.26,89.26,0,0,1-6.1,9.8,41.26,41.26,0,0,1-3.4,3.9c-.9,1.1-2.8,2.4-3.6,3.8.8-1,2.6-2.3,3.4-3.1,1.5-1.6,3-3.6,4.5-5.4a76.29,76.29,0,0,0,6.1-9.8c-5.4,10.7-13.4,20.4-23.8,26.3.8-.7,2.8-2,2.8-2.1-.2-.2-4.3,2.3-4.7,2.6,1.1-3,2.1-6,3.3-9,.4-.7,3-7.8,3-7.8-.2,0-.4.2-.5.5,3.8-8.3,9.1-16.8,14.1-24.6,1.6-2.4,10.6-17.7,11.3-7.3Zm-24.9,7.6c.2-.5.8-3.1.7-2.6l-2,6.5C41.38,75.17,41.88,73.87,42.28,72.57Zm-3.8,45.5c-.2.1.6,1.1,1.6,2.5A27.23,27.23,0,0,1,38.48,118.07Zm9.4,12.2s0-.1.1.1v.1Zm0,0c-.1,0-.1-.1-.2-.2C47.68,130.17,47.78,130.37,47.88,130.27ZM41,98.37c0-.1.1-.1.1-.2A.35.35,0,0,1,41,98.37Z"/>
  <path class="cls-4" d="M114.7,101.48c0,.1,0,.1-.1,0v-.1c-2.1-2.7-3.9,1.6-4.7,3.1-1.5,2.7-3,5.3-4.6,7.8a55.88,55.88,0,0,0-3.9,6.5c0,.2-.1.8-.1.8a24.26,24.26,0,0,1-1.4,2c-.9,1.1-1.7,2.3-2.7,3.4-1.4,1.7-9.5,11.4-11.3,6.1-1-2.6-.5-6.1-.3-8.8.1-1.4.3-2.8.3-4.2.1-1.1-.4-2.2,0-3.3.2-.7.4-.6,1.1-.9l1.8-.9a22.31,22.31,0,0,0,3.3-2,38.26,38.26,0,0,0,4.1-3.9c3-3.2,6.2-7,7-11.5a7.93,7.93,0,0,0-1.5-7c-1.6-1.7-4.2-2.3-6.4-2.5-6-.3-10,3.6-12.8,8.4a43.6,43.6,0,0,0-6.2,18.8c-.4,3.2-.4,6.4-.5,9.8s-.1,6.4,2,9.2c-.2-1.1-.6-2-.7-3-.1-.5.1-1.1,0-1.5,0-.2-.3-.8-.4-1.2a13.13,13.13,0,0,1,.1-2.8,25.82,25.82,0,0,0-.3-2.9,10,10,0,0,1,.6-3c.2-.9.2-1.7.4-2.6s.3-1.7.6-2.6a9.61,9.61,0,0,1,.7-2c-.2,1-.7,2-.9,2.9a18,18,0,0,0,.3,4c0,1.4-.3,2.9-.3,4.4s-.5,2.8-.6,4.3a11,11,0,0,0-.1,3.6,10.81,10.81,0,0,0,.5,2.1c.2.9.8,1.3,1.5,1.9a14.78,14.78,0,0,0,7.7,3.8,7.29,7.29,0,0,0,5.5-1.2,28.93,28.93,0,0,0,6.1-6.5c1.6-2.3,2.7-4.7,4.1-7.1,1.3-2.1,2.9-4.2,4.2-6.4l4.9-8.3,2.8-4.9A1.24,1.24,0,0,0,114.7,101.48ZM88,106a.77.77,0,0,0,.1-.3c1.2-3.7,1.9-7.5,3.8-11.2l1.5-2.8c.4-.6,1-1.7,1.7-2,1.6-.5,2.4,2.2,2.4,3.3l-.1,2.4c0,.7.2,1.1.2,1.6-.1.7-.6,1.1-.9,1.7l-1.5,2.6a32.71,32.71,0,0,1-8.2,8.4C87.4,108.38,87.6,107.18,88,106Z"/>
  <path class="cls-4" d="M195.64,37.25a18,18,0,0,0-5.7-2.3c-5.1-1.4-9.9-1.7-14.9.2a31.69,31.69,0,0,0-12.6,9.1c-2.3,2.7-6.3,7.3-6.4,11.2l.6-1.2a26.81,26.81,0,0,0-1.5,6.4,5.46,5.46,0,0,1,.1-1.8c-1.7.2-.4,6.8-.1,7.7a39.19,39.19,0,0,0,4.8,12.7c3.1,5.3,6.4,10.5,9.3,15.9l2.6,4.6a12.68,12.68,0,0,0,1.2,2.3c-.1,0,.4.8.4.7a11.26,11.26,0,0,0,.8,2.2,7,7,0,0,1-.9-1.7c-.1.8.7,1.7.9,2.2a11.56,11.56,0,0,1,.7,3.1,19.07,19.07,0,0,1-1.6,8.2,23.6,23.6,0,0,1-11.4,11.7c-3.7,1.6-8.3,2.1-10.6-1.8-1.9-3.2-1.8-7.4-1.5-10.9a31.6,31.6,0,0,1,1.1-6c.4-1.8,3.3-6.9,2.1-8.5-2.9-3.9-9.6,7.7-10.5,9.6-3.6,7.9-4.3,20.3,5.6,23.8,6.9,2.4,15.4.8,21.6-2.6,2.2-1.2,11.5-6.5,11-9.7l-2,1.8c6.7-7.4,8.7-15.7,4.6-25.1-2-4.4-5-7.7-8-11.4-2.3-3-3.2-6.1-5.1-9.3,2.6,3.9,5.6,7.6,8.3,11.4-5.6-9.6-15.7-20.7-11.4-32.8A28.6,28.6,0,0,1,178,43.55a21.84,21.84,0,0,1,9.4-3.7c4.1-.2,3.5,2.5,3.8,5.2,0-1.7.8-3.5-1.1-4.9-1.7-1.1-4.1-.4-5.9.2a28.59,28.59,0,0,0-10.9,6.4,29.51,29.51,0,0,1,7.4-5.3c2.4-1.2,5.9-2.7,8.6-2,6.5,2,.1,14.9-2.3,19.2.4-1,1.1-3,1.2-3.2-1.5.1-3.6,8.1-4.3,8.6-2.3,3,.9,3,2.9,1.4,2.2-1.7,3.9-4.2,5.5-6.3a57.68,57.68,0,0,0,5.7-9.1c1.1-2.1,3-5.6,1.4-7.8C198.44,40.45,197.64,38.55,195.64,37.25ZM146,132.65c-6.5-6.3-5.1-16-.9-23.6C141.54,116.05,141.14,127.85,146,132.65Zm20-66.6a8.87,8.87,0,0,1,.2,1.5Z"/>
  <path class="cls-4" d="M248.7,85.16c-.3-1.9-1.7-1.2-2.5-.2-.5.6-6.5,9.3-6.2,9.8a1.08,1.08,0,0,0,.7-.3c-1.8,2.3-4.8,4.7-7.1,6.8-2.3,2.3-4.6,6.2-8.1,6.8a3.42,3.42,0,0,1-1.1.1c-1.5,0-6.1-6.2-6.6-7.5.2,1.1,3.3,5.6,4.1,6.6-2.8-2.5-4.7-6.6-5.8-10.3.2.3.4.6.5.6.3-.1-.4-2.3-.4-2.4.2-.2,1.8-.9,2.2-1.2a73.1,73.1,0,0,0,6.5-4.3A49,49,0,0,0,236,80c3.3-4.3,5.9-10,.4-13.7s-11.9,2.9-15.2,6.8a73.38,73.38,0,0,0-8.4,12.2c-1.1,2.1-2.2,4.1-3.2,6.2-.6,1.2-2.7,4.2-2.3,5.5,0,0,1.8-2.8,1.8-2.9-.6,1.2-1.2,2.5-1.7,3.7,0-.1-1.4,2.5-1.6,3l-2.3,5.5c.5-5.3,1.3-10.6,2.2-15.9a14.27,14.27,0,0,1,2.4-6.6c1.3-2,2.6-4.1,3.8-6.1,2.7-4.5,5.1-9.3,7.5-14.1,1.8-3.5,2.9-8,5-11a40.36,40.36,0,0,0,5.5-13.8c.6-2.6,0-4.6-1.5-7-2.8-4.2-7.9-7.6-12.6-4.7-3.9,2.4-6.3,7-8,11a69,69,0,0,0-2.9,8L203.2,51c-.2.9-.4,2.4-.6,3.2a.35.35,0,0,1-.1.2c-.6,2.3-1,4.4-1.5,6.7a14.6,14.6,0,0,1,.3-2.2c-.5.1-1.6,5.5-1.8,6.2-.7,2.7-1.2,5.4-1.7,8.3a113.83,113.83,0,0,0-2,15.4c-.2,5.6-1.1,11.3-1.6,16.8-.1,2.4-.6,4.9-.3,7.3a7.12,7.12,0,0,0,1.5,3.7,15.77,15.77,0,0,0,2.3,1.4.35.35,0,0,1-.1-.2,5.26,5.26,0,0,0,2.6.6c-.8.1-1.8.1-2-.2.9,1,3.7-.1,3.9-.2,2.4-.9,2.5-4.4,3.6-6.5l4.1-9.3a24.6,24.6,0,0,0,3.2,6.5c.3.5,4,4.5,4.2,4.2a.76.76,0,0,0-.2-.4,4.19,4.19,0,0,0,1.6,1.1c-.1.1-.5-.3-.6,0-.5,1.1,4.3,2.1,5.1,2,1.5-.3,2.7-1.5,4-2.3a14.43,14.43,0,0,0,3.2-2.3c1.2-1.2-.2-.4.6-1.2v.2c.3-.5,4.8-3.8,5-4,2.3-2.2,3.9-4.9,5.8-7.4a50.33,50.33,0,0,0,4.1-6.5c1.4-2,3.4-3.8,2.8-6.6Zm-30.1-49.9c.9-1.7,3.6-5.8,5.8-3.5s-.3,9-1.2,11.6c-1.2,3.9-2.8,7.7-4.4,11.5L216.5,60c-.9,1.8-2.1,3.5-2.5,5.2a22,22,0,0,1,1.5-2.6l1.9-4.1c1.5-3.2,2.8-6.3,4.1-9.5.7-1.5,1.4-3.3,2.1-5.1-.8,2.4-1.7,4.7-2.6,7.1a193.65,193.65,0,0,1-13.2,26.6c1.1-7.3,2.2-14.6,4-21.9C213.4,48.76,215,41.36,218.6,35.26Zm-3.9,57.2a142.34,142.34,0,0,1,9.7-15.8c.8-1.2,5.5-8.1,7.5-7s-3.4,8.9-4.1,10C224.3,84.56,220,89.56,214.7,92.46Zm-4.2-39c.9-3.3,1.7-6.7,2.8-10.2.1-.4,1-2,1.4-3-.4,1.5-1.7,4.1-1.8,4.7-1.2,4.7-1.9,9.4-2.9,14.1-1.1,5.6-2.1,11.1-2.9,16.7l.1-.9-.1.1c0-.1.1-.1.1-.2C207.8,67.76,208.6,60.26,210.5,53.46Zm-7.8.6-.1.1A.1.1,0,0,0,202.7,54.06Zm-.1.3v0Z"/>
  <g>
    <path class="cls-4" d="M269.17,82.21c-.4-1.4-1.9-.8-2.5-.1-.9.8-5.4,8.6-4.9,9.1a.91.91,0,0,0,.7-.3,47,47,0,0,1-5.7,6.3c-1.1,1.1-3.7,4.2-5.5,3.6-4-1.5,1.9-15.4,1.5-15.5s-2.3,6.3-2.7,7.8a56.08,56.08,0,0,1,3.7-11.6c-.1.3-.3.9-.1.9s1.6-2.4,1.2-2.6a.4.4,0,0,0-.4.2c.3-.4.8-.5.7-1.2-.1-1.1-2.8-1.9-3.7-2.1-2.2-.6-4.3-.6-5.7.7-2,1.6-2.1,4.2-2.7,6.6-.1.7-1.2,8.6-.8,8.7.2-.1.2-.2.3-.5l-.1,2c-.1,0,0-.6-.2-.5-.9.1-.2,4,0,4.5.7,1.9,2.4,3.1,3.8,4.6a8.15,8.15,0,0,0,2.6,2.3c1.4.8.4-.1,1.4.3h-.2c0,.7,4.2,1.2,5.1,1,3.7-1.3,5.8-6.3,7.6-9.5,1.7-2.9,3.1-5.7,4.6-8.6C268.17,86.81,269.87,84.21,269.17,82.21Z"/>
    <path class="cls-11" d="M249.67,97v.1l-.1.7.1-.9C249.77,96.71,249.77,96.71,249.67,97Z"/>
  </g>
  <path class="cls-4" d="M306.24,78.39c-.9-2.5-2.2-.6-2.7.4a70.51,70.51,0,0,1-5.1,6c-2.2,2.6-4.4,5.2-6.8,7.6-1.2,1.2-2.6,3-4.2,3.7-.2.1-.9.3-.9.4l-.1-.1a9.91,9.91,0,0,1-.2-1.8,14.66,14.66,0,0,1,.5-4.2,21.59,21.59,0,0,0,.6-4l-.5.7c.5-1.4,1.2-2.8,1.8-4.3a15.12,15.12,0,0,0-3.1,6.2,24.59,24.59,0,0,0-1.3,4.9c-.1-2.5,1.2-5.8,1.8-7.3a67.66,67.66,0,0,1,2.8-7.5c2.1-4.2,7.3-8.5,4.9-13.7-2.2-4.9-6.2-4.5-9-1.2-1.4,1.6-12.2,19.7-11.8,19.8,0,0,.9-1.4,2.1-3.5l-5.3,10.2c-.1,0,.8-2,.7-2.1s-.8.8-.8,1.2c-.1-2.3.4-4.7.3-7a19.27,19.27,0,0,1-.1-2.4,27.09,27.09,0,0,1,1-4.3c.3-.9,1.1-1.8,1.2-2.7.3-1.5.1-2,.9-3.3s1.9-2.4,2.5-3.5c1.5-2.9-1.9-4.4-3.6-4.5a6.54,6.54,0,0,0-4.1.9c-1.3,1-.9,1.8-1.1,3-.1,1.6-1,3.4-1.4,4.9-.6,2.4-1.1,4.8-1.5,7.1a62.75,62.75,0,0,0-1.5,7,32.45,32.45,0,0,0,0,5.4c0,2-.1,3.3,1.1,4.9s4.6,4.2,6.3,1.5l.5.8c1.3-4.2,3.7-8.2,5.5-12.4.8-1.9,2.3-3.3,3.5-5.3,1.6-2.8,3-5.7,4.9-8.4a15.19,15.19,0,0,0-1.2,3.3c.2-.1.3-.4.5-.6l-1.1,3.2c-.1-.1.3-.9.1-.9-.8-.1-2.3,6.2-2.4,6.8a29,29,0,0,0-.2,7.2c0,1.2,0,2.4.1,3.6a8.94,8.94,0,0,0,1.1,3.5,7,7,0,0,0,1.6,1.9c.1,0,1.4.9.8.1l.7.6-.4-.2c0,.6,4.2,2.2,4.9,2.4,3.2.6,6-3.3,7.7-5.6,2.2-3.1,4-6.7,6-10C303.34,85.19,306.94,81,306.24,78.39Z"/>
  <path class="cls-4" d="M343.16,73.81c-.9-2.5-2.2-.6-2.7.4a70.51,70.51,0,0,1-5.1,6c-2.2,2.5-4.4,5.1-6.8,7.5-1.2,1.2-2.6,3-4.2,3.7-.2.1-.9.3-.9.4l-.1-.1a9.91,9.91,0,0,1-.2-1.8,14.66,14.66,0,0,1,.5-4.2,21.59,21.59,0,0,0,.6-4l-.5.7c.5-1.4,1.2-2.8,1.8-4.3a15.12,15.12,0,0,0-3.1,6.2,24.59,24.59,0,0,0-1.3,4.9,23.64,23.64,0,0,1,1.8-7.3,67.66,67.66,0,0,1,2.8-7.5c2.1-4.2,7.3-8.5,4.9-13.7-2.2-4.9-6.2-4.5-9-1.2-1.3,1.6-12.1,19.7-11.8,19.9,0,0,.9-1.4,2.1-3.5l-5.2,10.2c-.1,0,.8-2,.7-2.1s-.8.8-.8,1.2c-.1-2.3.4-4.7.3-7a19.27,19.27,0,0,1-.1-2.4,27.09,27.09,0,0,1,1-4.3c.3-.9,1.1-1.8,1.2-2.7.3-1.5.1-2,.9-3.3s1.9-2.4,2.5-3.5c1.5-2.9-1.9-4.4-3.6-4.5a6.54,6.54,0,0,0-4.1.9c-1.3,1-.9,1.8-1.1,3-.1,1.6-1,3.4-1.4,4.9-.6,2.4-1.1,4.8-1.5,7.1a62.75,62.75,0,0,0-1.5,7,32.45,32.45,0,0,0,0,5.4c0,2-.1,3.3,1.1,4.9s4.6,4.2,6.3,1.5l.5.8c1.3-4.2,3.7-8.2,5.5-12.4.8-1.7,2.4-3.1,3.5-5.1,1.6-2.8,3-5.7,4.9-8.4a15.19,15.19,0,0,0-1.2,3.3c.2-.1.3-.4.5-.6l-1.2,3.2c-.1-.1.3-.9.1-.9-.8-.1-2.3,6.2-2.4,6.8a29,29,0,0,0-.2,7.2c0,1.2,0,2.4.1,3.6a8.94,8.94,0,0,0,1.1,3.5,7,7,0,0,0,1.6,1.9c.1,0,1.4.9.8.1l.7.6-.4-.2c0,.6,4.2,2.2,4.9,2.4,3.2.6,6-3.3,7.7-5.6,2.2-3.1,4-6.7,6-10C340.26,80.51,344,76.31,343.16,73.81Z"/>
  <path class="cls-7" d="M63.3,50c-3.2,1.4-6.1,5.9-8.2,8.6-1.3,1.6-2.7,3.3-3.9,5.1-.8,1.2-3.1,3.7-3.1,5.2.1.1.1.1.2.1L47,71.09a12.16,12.16,0,0,1,.8-1.7c-.5.3-1.1,2.3-1.1,2.3-2.5,4.3-5.5,8.3-7.8,12.8a119.43,119.43,0,0,0-6.4,15.4,132.45,132.45,0,0,1,3.2-15.2l-1.9,5.9.8-2.6a112.57,112.57,0,0,0-6.2,21.8,194.75,194.75,0,0,1,14.2-48.1c-.2.7-.5,1.6-.3,1.6.4.1,2.1-4.4,1.7-4.5l-.3.3a3.58,3.58,0,0,0-.1-3.6c-.9-1.7-2.9-4.5-5-3.2-1.3.7-2.2,3.5-2.6,4.6-.3.6-.3,1.5-.5,1.9-.4.7-1.1,1.1-1.6,2.1a48.3,48.3,0,0,0-2.5,7.6c-.4,1.4-4.7,15-4.5,15.1.2-.1.3-.4.4-.6-.2,1-.5,2-.8,3.1-.1-.1.2-.9,0-.9-1-.1-3.1,9.3-3.2,10.2a35.17,35.17,0,0,1-1.1,6.2,23.38,23.38,0,0,0-1.2,4c0,.1-.2,2.9.1,1.9a2.77,2.77,0,0,1-.1.9.4.4,0,0,0-.2-.4c-.1,0-.4,3.4-.5,3.8-.6,1.7-1.2,3.5-1.7,5.3-1.1,4.8-1.2,9.5-1.7,14.4-.3,3.7-2,9.7.1,13.1,1.9,3.2,7.1,2.3,9.2-.5,0,.2.2.3.3.4.1-8.3,2.2-16.9,4.5-24.9.8,1.1.5,1.7,1.2,3,.8,2.1,2.5,3.8,3.7,5.6.5.8,6.6,9.7,6.8,9.6s-.1-.4-.1-.5a13,13,0,0,0,1.5,2c-.1,0-.4-.5-.6-.4-.8.8,4.6,6.6,5.2,6.9,1.4,1.3,2.6,2.4,3.8,3.7a11.23,11.23,0,0,0,2.3,2.1c.1.1,1.5.9,1.3.5.1.1.3.2.5.4a.35.35,0,0,0-.2-.1c-.1.3,5.8,4.6,6.2,4.8a10.82,10.82,0,0,0,6.6.9c6.1-1.3,10.2-7.2,13.1-12.1a4.13,4.13,0,0,0,.8-3.3c-.6-2.9-1.5-1.4-2.3-.2-1.6,2.2-4.8,4.8-7.6,5.1a7.51,7.51,0,0,1-3.3-.4c-.5-.2-4.5-2-4.5-1.9a3,3,0,0,0,.5.7c-2-1.3-4.3-3.8-6.3-5.5l-8.6-7.6c-1.1-1-9.3-10-12.9-14.6l4.2,5.7c-2.3-2.8-4.5-5.7-6.6-8.8,5.5-.4,11.4-5.4,15.5-8.8,3.7-3.2,6.2-7.9,9.2-12.2,6-8.1,11.4-17.8,12-28.3-.7,14.4-7.8,26.5-17.2,36.9,3.4-1.3,6.3-5.8,8.4-8.5a69.06,69.06,0,0,0,6.3-9.6,46.23,46.23,0,0,0,4.8-12.5c.4-1.7,2.1-6.8,1.4-8.9,0,0-.2.8-.4,1.4a21.31,21.31,0,0,0-.3-5.6c.2.4.5,1,.4,1.2.2-.1-.1-1.5-.1-2.1,0,0-.2-.7-.1-.5C74.2,53.19,68.7,47.59,63.3,50Zm1.5,13.2c-.1.4-.1.3,0,.1.4,7.5-2.9,15.4-6.4,21.9A89.26,89.26,0,0,1,52.3,95a41.26,41.26,0,0,1-3.4,3.9c-.9,1.1-2.8,2.4-3.6,3.8.8-1,2.6-2.3,3.4-3.1,1.5-1.7,3.1-3.7,4.5-5.5a76.29,76.29,0,0,0,6.1-9.8c-5.4,10.7-13.4,20.5-23.8,26.4.8-.7,2.8-2,2.8-2.1-.2-.2-4.3,2.3-4.7,2.6,1.1-3,2.1-6,3.3-9,.4-.7,3-7.8,3-7.8-.2,0-.4.2-.5.5,3.8-8.3,9.1-16.8,14.1-24.6,1.6-2.4,10.6-17.7,11.3-7.3Zm-24.9,7.5c.2-.5.8-3.1.7-2.6l-2,6.5C39,73.39,39.5,72.09,39.9,70.69Zm-3.8,45.5c-.2.1.6,1.1,1.6,2.5A27.23,27.23,0,0,1,36.1,116.19Zm9.4,12.3s0-.1.1.1v.1Zm0,0c-.1,0-.1-.1-.2-.2C45.4,128.39,45.4,128.49,45.5,128.49Zm-6.9-32c0-.1.1-.1.1-.2A.35.35,0,0,1,38.6,96.49Z"/>
  <path class="cls-7" d="M112.32,99.59c0,.1,0,.1-.1,0v-.1c-2.1-2.7-3.9,1.6-4.7,3.1-1.5,2.7-3,5.3-4.6,7.8a55.88,55.88,0,0,0-3.9,6.5c0,.2-.1.8-.1.8a24.26,24.26,0,0,1-1.4,2c-.9,1.1-1.7,2.3-2.7,3.4-1.4,1.7-9.5,11.4-11.3,6.1-1-2.6-.5-6.1-.3-8.8.1-1.4.3-2.8.3-4.2.1-1.1-.4-2.2,0-3.3.2-.7.4-.6,1.1-.9l1.8-.9a22.31,22.31,0,0,0,3.3-2,38.26,38.26,0,0,0,4.1-3.9c3-3.2,6.2-7,7-11.5a7.93,7.93,0,0,0-1.5-7c-1.6-1.7-4.2-2.3-6.4-2.5-6-.3-10,3.6-12.8,8.4a47.38,47.38,0,0,0-6.3,19.1c-.4,3.2-.4,6.4-.5,9.8s-.1,6.4,2,9.2c-.2-1.1-.6-2-.7-3-.1-.5.1-1.1,0-1.5,0-.2-.3-.8-.4-1.2a13.13,13.13,0,0,1,.1-2.8,25.82,25.82,0,0,0-.3-2.9,10,10,0,0,1,.6-3c.2-.9.2-1.7.4-2.6s.3-1.7.6-2.6a9.61,9.61,0,0,1,.7-2c-.2,1-.7,2-.9,2.9a18,18,0,0,0,.3,4c0,1.4-.3,2.9-.3,4.4s-.5,2.8-.6,4.3a11,11,0,0,0-.1,3.6,10.81,10.81,0,0,0,.5,2.1c.2.9.8,1.3,1.5,1.9a14.78,14.78,0,0,0,7.7,3.8,7.29,7.29,0,0,0,5.5-1.2,28.93,28.93,0,0,0,6.1-6.5c1.6-2.3,2.7-4.7,4.1-7.1,1.3-2.1,2.9-4.2,4.2-6.4l4.9-8.3,2.9-4.9A1.66,1.66,0,0,0,112.32,99.59Zm-26.7,4.6v-.4c1.2-3.6,2-7.5,3.8-11.1l1.6-2.8c.4-.6,1-1.7,1.7-2,1.6-.5,2.4,2.2,2.4,3.3l-.1,2.3c0,.7.2,1.1.2,1.6-.1.7-.6,1.1-.9,1.7l-1.5,2.6a32.71,32.71,0,0,1-8.2,8.4C85,106.59,85.22,105.29,85.62,104.19Z"/>
  <path class="cls-7" d="M193.26,35.37a18,18,0,0,0-5.7-2.3c-5.1-1.4-9.9-1.7-14.9.2a31.69,31.69,0,0,0-12.6,9.1c-2.3,2.7-6.3,7.3-6.4,11.2l.6-1.2a26.81,26.81,0,0,0-1.5,6.4,5.46,5.46,0,0,1,.1-1.8c-1.7.2-.4,6.8-.1,7.7a39.19,39.19,0,0,0,4.8,12.7c3,5.4,6.3,10.6,9.1,16l2.6,4.6a12.68,12.68,0,0,0,1.2,2.3,3.19,3.19,0,0,1,.6.7,11.26,11.26,0,0,0,.8,2.2,7,7,0,0,1-.9-1.7c-.1.8.7,1.7.9,2.2a11.56,11.56,0,0,1,.7,3.1A19.07,19.07,0,0,1,171,115a22.28,22.28,0,0,1-11.3,11.7c-3.7,1.6-8.3,2.1-10.6-1.8-1.9-3.2-1.8-7.4-1.5-10.9a31.6,31.6,0,0,1,1.1-6c.4-1.8,3.3-6.9,2.1-8.5-2.9-3.9-9.6,7.7-10.5,9.6-3.6,7.9-4.3,20.3,5.6,23.8,6.9,2.4,15.4.8,21.6-2.6,2.2-1.2,11.5-6.5,11-9.7l-2,1.8c6.7-7.4,8.7-15.7,4.6-25.1-2-4.4-5-7.7-8-11.4-2.3-3-3.2-6.1-5.1-9.3,2.6,3.9,5.6,7.6,8.3,11.4-5.7-9.6-15.8-20.7-11.5-32.8a28.6,28.6,0,0,1,10.9-13.4,21.84,21.84,0,0,1,9.4-3.7c4.1-.2,3.5,2.5,3.8,5.2,0-1.7.8-3.5-1.1-4.9-1.7-1.1-4.1-.4-5.9.2A28.59,28.59,0,0,0,171,45a29.51,29.51,0,0,1,7.4-5.3c2.4-1.2,5.9-2.7,8.6-2,6.5,2,.1,14.9-2.3,19.2.4-1,1.1-3,1.2-3.2-1.5.1-3.6,8.1-4.3,8.6-2.3,3,.9,3,2.9,1.4,2.2-1.7,3.9-4.2,5.5-6.3a57.68,57.68,0,0,0,5.7-9.1c1.1-2.1,3-5.6,1.4-7.8C196.06,38.57,195.26,36.67,193.26,35.37Zm-49.6,95.4c-6.5-6.3-5.1-16-.9-23.6C139.16,114.17,138.76,126.07,143.66,130.77Zm20-66.6a8.87,8.87,0,0,1,.2,1.5Z"/>
  <path class="cls-7" d="M246.33,83.38c-.3-1.9-1.7-1.2-2.6-.2-.5.6-6.5,9.3-6.2,9.8a1.08,1.08,0,0,0,.7-.3c-1.8,2.3-4.8,4.7-7.1,6.8-2.3,2.3-4.6,6.2-8.1,6.8a3.42,3.42,0,0,1-1.1.1c-1.5,0-6.1-6.2-6.6-7.5.2,1.1,3.3,5.6,4.1,6.6-2.8-2.5-4.7-6.6-5.8-10.3.2.3.4.6.5.6.3-.1-.4-2.3-.4-2.4a18.89,18.89,0,0,0,2.5-1.1,73.1,73.1,0,0,0,6.5-4.3,56.25,56.25,0,0,0,10.9-9.8c3.3-4.3,5.9-10,.4-13.7s-11.9,2.9-15.2,6.8a73.38,73.38,0,0,0-8.4,12.2c-1.1,2.1-2.2,4.1-3.2,6.2-.6,1.2-2.7,4.2-2.3,5.5,0,0,1.8-2.8,1.8-2.9-.6,1.2-1.2,2.5-1.7,3.7,0-.1-1.4,2.5-1.6,3l-2.3,5.5c.6-5.2,1.3-10.5,2.2-15.8a14.27,14.27,0,0,1,2.4-6.6c1.3-2,2.6-4.1,3.8-6.1,2.7-4.5,5.1-9.3,7.5-14.1,1.8-3.5,2.9-8,5-11a40.36,40.36,0,0,0,5.5-13.8c.6-2.6,0-4.6-1.5-7-2.8-4.2-7.9-7.6-12.6-4.7-3.9,2.4-6.3,7-8,11a69,69,0,0,0-2.9,8l-1.6,4.8c-.2.9-.4,2.4-.6,3.2a.35.35,0,0,1-.1.2c-.6,2.3-1,4.4-1.5,6.7a14.6,14.6,0,0,1,.3-2.2c-.5.1-1.6,5.5-1.8,6.2-.7,2.7-1.2,5.4-1.7,8.3a113.83,113.83,0,0,0-2,15.4c-.2,5.6-1.1,11.3-1.6,16.8-.1,2.4-.6,4.9-.3,7.3a7.12,7.12,0,0,0,1.5,3.7,15.77,15.77,0,0,0,2.3,1.4.35.35,0,0,1-.1-.2,5.26,5.26,0,0,0,2.6.6c-.8.1-1.8.1-2-.2.9,1,3.7-.1,3.9-.2,2.4-.9,2.5-4.4,3.6-6.5l4.1-9.3a24.6,24.6,0,0,0,3.2,6.5c.3.5,4,4.5,4.2,4.2a.76.76,0,0,0-.2-.4,4.19,4.19,0,0,0,1.6,1.1c-.1.1-.5-.3-.6,0-.5,1.1,4.3,2.1,5.1,2,1.5-.3,2.7-1.5,4-2.3a14.43,14.43,0,0,0,3.2-2.3c1.2-1.2-.2-.4.6-1.2v.2c.3-.5,4.8-3.8,5-4,2.3-2.2,3.9-4.9,5.8-7.4a50.33,50.33,0,0,0,4.1-6.5c1.4-2,3.4-3.8,2.8-6.6Zm-30.1-50c.9-1.7,3.6-5.8,5.8-3.5s-.3,9-1.2,11.6c-1.2,3.9-2.8,7.7-4.4,11.5l-2.3,5.1c-.9,1.8-2.1,3.5-2.5,5.2a22,22,0,0,1,1.5-2.6l1.9-4.1c1.5-3.2,2.8-6.3,4.1-9.5.7-1.5,1.4-3.3,2.1-5.1-.8,2.4-1.7,4.7-2.6,7.1a193.65,193.65,0,0,1-13.2,26.6c1.1-7.3,2.2-14.6,4-21.9C211,46.88,212.73,39.58,216.23,33.38Zm-3.9,57.2a142.34,142.34,0,0,1,9.7-15.8c.8-1.2,5.5-8.1,7.5-7s-3.4,8.9-4.1,10C221.93,82.68,217.63,87.68,212.33,90.58Zm-4.2-39c.9-3.3,1.7-6.7,2.8-10.2.1-.4,1-2,1.4-3-.4,1.5-1.7,4.1-1.8,4.7-1.2,4.7-1.9,9.4-2.9,14.1-1.1,5.6-2.1,11.1-2.9,16.7l.1-.9-.1.1c0-.1.1-.1.1-.2C205.43,65.88,206.23,58.38,208.13,51.58Zm-7.8.7-.1.1A.1.1,0,0,0,200.33,52.28Zm-.1.2v0Z"/>
  <g>
    <path class="cls-7" d="M266.79,80.33c-.4-1.4-1.9-.8-2.5-.1-1,.8-5.5,8.6-5,9.1a.91.91,0,0,0,.7-.3,47,47,0,0,1-5.7,6.3c-1.1,1.1-3.7,4.2-5.5,3.6-3.9-1.4,1.9-15.3,1.6-15.4s-2.3,6.3-2.7,7.8a56.08,56.08,0,0,1,3.7-11.6c-.1.3-.3.9-.1.9s1.6-2.4,1.2-2.6a.4.4,0,0,0-.4.2c.3-.4.8-.5.7-1.2,0-1.1-2.6-1.9-3.5-2.1-2.2-.6-4.3-.6-5.7.7-2,1.6-2.1,4.2-2.7,6.6-.2.7-1.3,8.7-.9,8.7.2-.1.2-.2.3-.5l-.1,2c-.1,0,0-.6-.2-.5-.9.1-.2,4,0,4.5.7,1.9,2.4,3.1,3.8,4.6a8.15,8.15,0,0,0,2.6,2.3c1.4.8.4-.1,1.4.3h-.2c0,.7,4.2,1.2,5.1,1,3.7-1.3,5.8-6.3,7.6-9.5,1.7-2.9,3.1-5.7,4.6-8.6C265.79,85,267.49,82.33,266.79,80.33Z"/>
    <path class="cls-11" d="M247.29,95.13v.1l-.1.7.1-.9C247.39,94.93,247.39,94.93,247.29,95.13Z"/>
  </g>
  <path class="cls-7" d="M303.86,76.6c-.9-2.6-2.2-.6-2.7.4a70.51,70.51,0,0,1-5.1,6c-2.2,2.5-4.4,5.1-6.8,7.5-1.2,1.2-2.6,3-4.2,3.7-.2.1-.9.3-.9.4l-.1-.1a9.91,9.91,0,0,1-.2-1.8,14.66,14.66,0,0,1,.5-4.2,21.59,21.59,0,0,0,.6-4l-.5.7c.5-1.4,1.2-2.8,1.8-4.3a15.12,15.12,0,0,0-3.1,6.2,24.59,24.59,0,0,0-1.3,4.9c-.1-2.4,1.2-5.8,1.7-7.3a67.66,67.66,0,0,1,2.8-7.5c2.1-4.2,7.3-8.5,4.9-13.7-2.2-4.9-6.2-4.5-9-1.2-1.2,1.6-12.1,19.7-11.7,19.9,0,0,.9-1.4,2.1-3.5l-5.2,10.2c-.1,0,.8-2,.7-2.1s-.8.8-.8,1.2c-.1-2.3.3-4.7.3-7a19.27,19.27,0,0,1-.1-2.4,27.09,27.09,0,0,1,1-4.3c.3-.9,1.1-1.8,1.2-2.7.3-1.5.1-2,.9-3.3s1.9-2.4,2.5-3.5c1.5-2.9-1.9-4.4-3.6-4.5a6.54,6.54,0,0,0-4.1.9c-1.3,1-.9,1.8-1.1,3-.1,1.6-1,3.4-1.4,4.9-.6,2.4-1.1,4.8-1.5,7.1a62.75,62.75,0,0,0-1.5,7,32.45,32.45,0,0,0,0,5.4c0,2-.1,3.3,1.1,4.9s4.6,4.2,6.3,1.5l.5.8c1.3-4.2,3.7-8.2,5.5-12.4.8-1.9,2.3-3.3,3.5-5.3,1.6-2.8,3-5.7,4.9-8.4a15.19,15.19,0,0,0-1.2,3.3c.2-.1.3-.4.5-.6L280,75.6c-.1-.1.3-.9.1-.9-.8-.1-2.3,6.2-2.4,6.8a29,29,0,0,0-.2,7.2c0,1.2,0,2.4.1,3.6a8.94,8.94,0,0,0,1.1,3.5,7,7,0,0,0,1.6,1.9c.1,0,1.4.9.8.1l.7.6-.4-.2c0,.6,4.2,2.2,4.9,2.4,3.2.6,6-3.3,7.7-5.6,2.2-3.1,4-6.7,6-10C301,83.3,304.66,79.1,303.86,76.6Z"/>
  <path class="cls-7" d="M340.78,71.93c-.9-2.5-2.2-.6-2.7.4a70.51,70.51,0,0,1-5.1,6c-2.2,2.5-4.4,5.1-6.8,7.5-1.2,1.2-2.6,3-4.2,3.7-.2.1-.9.3-.9.4l-.1-.1a9.91,9.91,0,0,1-.2-1.8,14.66,14.66,0,0,1,.5-4.2,21.59,21.59,0,0,0,.6-4l-.5.7c.5-1.4,1.2-2.8,1.8-4.3a15.12,15.12,0,0,0-3.1,6.2,24.59,24.59,0,0,0-1.3,4.9c-.1-2.4,1.2-5.8,1.7-7.3.9-2.3,1.8-5.1,2.9-7.4,2.1-4.2,7.3-8.5,4.9-13.7-2.2-4.9-6.2-4.5-9-1.2-1.3,1.6-12.1,19.6-11.8,19.8,0,0,.9-1.4,2.1-3.5l-5.2,10.2c-.1,0,.8-2,.7-2.1s-.8.8-.8,1.2c-.1-2.3.4-4.7.3-7a19.27,19.27,0,0,1-.1-2.4,27.09,27.09,0,0,1,1-4.3c.3-.9,1.1-1.8,1.2-2.7.3-1.5.1-2,.9-3.3s1.9-2.4,2.5-3.5c1.5-2.9-1.9-4.4-3.6-4.5a6.54,6.54,0,0,0-4.1.9c-1.3,1-.9,1.8-1.1,3-.1,1.6-1,3.4-1.4,4.9-.6,2.4-1.1,4.8-1.5,7.1a62.75,62.75,0,0,0-1.5,7,32.45,32.45,0,0,0,0,5.4c0,2-.1,3.3,1.1,4.9s4.6,4.2,6.3,1.5l.5.8c1.3-4.2,3.7-8.2,5.5-12.4.8-1.9,2.3-3.3,3.5-5.3,1.6-2.8,3-5.7,4.9-8.4-.2.8-1.3,3.5-1.2,3.6.2-.1.3-.4.5-.6l-1.1,3.2c-.1-.1.3-.9.1-.9-.8-.1-2.3,6.2-2.4,6.8a29,29,0,0,0-.2,7.2c0,1.2,0,2.4.1,3.6a8.94,8.94,0,0,0,1.1,3.5,7,7,0,0,0,1.6,1.9c.1,0,1.4.9.8.1l.7.6-.4-.2c0,.6,4.2,2.2,4.9,2.4,3.2.6,6-3.3,7.7-5.6,2.2-3.1,4-6.7,6-10C337.88,78.73,341.58,74.53,340.78,71.93Z"/>
  <path d="M60.92,48.11c-3.2,1.4-6.1,5.9-8.2,8.6-1.3,1.6-2.7,3.3-3.9,5.1-.8,1.2-3.1,3.7-3.1,5.2.1.1.1.1.2.1l-1.3,2.1a12.16,12.16,0,0,1,.8-1.7c-.5.3-1.1,2.3-1.1,2.3-2.5,4.3-5.5,8.3-7.8,12.8a148.69,148.69,0,0,0-6.4,15.5,132.45,132.45,0,0,1,3.2-15.2l-1.9,5.9.8-2.6A108.7,108.7,0,0,0,26,108a191.2,191.2,0,0,1,14.2-48.2c-.2.7-.5,1.6-.3,1.6.4.1,2.1-4.4,1.7-4.5l-.3.3a3.58,3.58,0,0,0-.1-3.6c-.9-1.7-2.9-4.5-5-3.2-1.3.7-2.2,3.5-2.6,4.6-.3.6-.3,1.5-.5,1.9-.4.7-1.1,1.1-1.6,2.1a48.3,48.3,0,0,0-2.5,7.6c-.4,1.4-4.7,15-4.5,15.1.2-.1.3-.4.4-.6-.2,1-.5,2-.8,3.1-.1-.1.2-.9,0-.9-1-.1-3.1,9.3-3.2,10.2a35.17,35.17,0,0,1-1.1,6.2,30.59,30.59,0,0,0-1,4.1c0,.1-.2,2.9.1,1.9a2.77,2.77,0,0,1-.1.9.4.4,0,0,0-.2-.4c-.3,0-.6,3.3-.7,3.8-.6,1.7-1.2,3.5-1.7,5.3-1,4.7-1.2,9.5-1.7,14.4-.3,3.7-2,9.7.1,13.1,1.9,3.2,7.1,2.3,9.2-.5,0,.2.2.3.3.4.1-8.3,2.2-16.9,4.5-24.9.8,1.1.5,1.7,1.2,3,.8,2.1,2.5,3.8,3.7,5.6.5.8,6.6,9.7,6.8,9.6s-.1-.4-.1-.5a13,13,0,0,0,1.5,2c-.1,0-.4-.5-.6-.4-.8.8,4.6,6.6,5.2,6.9,1.4,1.3,2.6,2.4,3.8,3.7a11.23,11.23,0,0,0,2.3,2.1c.1.1,1.5.9,1.3.5.1.1.3.2.5.4a.35.35,0,0,0-.2-.1c-.1.3,5.8,4.6,6.2,4.8a10.82,10.82,0,0,0,6.6.9c6.1-1.3,10.2-7.2,13.1-12.1a4.13,4.13,0,0,0,.8-3.3c-.6-2.9-1.5-1.4-2.3-.2-1.6,2.2-4.8,4.8-7.6,5.1a7.51,7.51,0,0,1-3.3-.4c-.5-.2-4.5-2-4.5-1.9a3,3,0,0,0,.5.7c-2-1.3-4.3-3.8-6.3-5.5l-8.6-7.6c-1.1-1-9.3-10-12.9-14.6l4.2,5.7c-2.3-2.8-4.5-5.7-6.6-8.8,5.5-.4,11.4-5.4,15.5-8.8,3.7-3.2,6.2-7.9,9.2-12.2,6-8.1,11.4-17.8,12-28.3-.7,14.4-7.8,26.5-17.2,36.9,3.4-1.3,6.3-5.8,8.4-8.5a69.06,69.06,0,0,0,6.3-9.6,46.23,46.23,0,0,0,4.8-12.5c.4-1.7,2.1-6.8,1.4-8.9,0,0-.2.8-.4,1.4a21.31,21.31,0,0,0-.3-5.6c.2.4.5,1,.4,1.2.2-.1-.1-1.5-.1-2.1,0,0-.2-.7-.1-.5C71.82,51.31,66.32,45.81,60.92,48.11Zm1.5,13.2c-.1.4-.1.3,0,.1.4,7.5-2.9,15.4-6.4,21.9a89.26,89.26,0,0,1-6.1,9.8,41.26,41.26,0,0,1-3.4,3.9c-.9,1.1-2.8,2.4-3.6,3.8.8-1,2.6-2.3,3.4-3.1,1.5-1.7,3.1-3.7,4.5-5.5a76.29,76.29,0,0,0,6.1-9.8c-5.4,10.8-13.4,20.5-23.8,26.4.8-.6,2.9-2,2.9-2.1-.2-.2-4.3,2.3-4.7,2.6,1.1-3,2.1-6,3.3-9,.4-.7,3-7.8,3-7.8-.2,0-.4.2-.5.5,3.8-8.3,9.1-16.8,14.1-24.6,1.6-2.4,10.6-17.7,11.3-7.3Zm-24.9,7.6c.2-.5.8-3.1.7-2.6l-2,6.5C36.62,71.51,37.12,70.21,37.52,68.91Zm-3.8,45.5c-.2.1.6,1.1,1.6,2.5A27.23,27.23,0,0,1,33.72,114.41Zm9.4,12.2s0-.1.1.1v.1Zm0,0c-.1,0-.1-.1-.2-.2C43,126.51,43,126.61,43.12,126.61Zm-6.9-31.9c0-.1.1-.1.1-.2Z"/>
  <path d="M109.94,97.81c0,.1,0,.1-.1,0v-.1c-2.1-2.7-3.9,1.6-4.7,3.1-1.5,2.7-3,5.3-4.6,7.8a55.88,55.88,0,0,0-3.9,6.5c0,.2-.1.8-.1.8a24.26,24.26,0,0,1-1.4,2c-.9,1.1-1.7,2.3-2.7,3.4-1.4,1.7-9.5,11.4-11.3,6.1-1-2.6-.5-6.1-.3-8.8.1-1.4.3-2.8.3-4.2.1-1.1-.4-2.2,0-3.3.2-.7.4-.6,1.1-.9l1.8-.9a22.31,22.31,0,0,0,3.3-2,38.26,38.26,0,0,0,4.1-3.9c3-3.2,6.2-7,7-11.5a7.93,7.93,0,0,0-1.5-7c-1.6-1.7-4.2-2.3-6.4-2.5-6-.3-10,3.6-12.8,8.4a45.32,45.32,0,0,0-6.2,19c-.4,3.2-.4,6.4-.5,9.8s-.1,6.4,2,9.2c-.2-1.1-.6-2-.7-3-.1-.5.1-1.1,0-1.5,0-.2-.3-.8-.4-1.2a13.13,13.13,0,0,1,.1-2.8,25.82,25.82,0,0,0-.3-2.9,10,10,0,0,1,.6-3c.2-.9.2-1.7.4-2.6s.3-1.7.6-2.6a9.61,9.61,0,0,1,.7-2c-.2,1-.7,2-.9,2.9a18,18,0,0,0,.3,4c0,1.4-.3,2.9-.3,4.4s-.5,2.8-.6,4.3a11,11,0,0,0-.1,3.6,10.81,10.81,0,0,0,.5,2.1c.2.9.8,1.3,1.5,1.9a14.78,14.78,0,0,0,7.7,3.8,7.29,7.29,0,0,0,5.5-1.2,28.93,28.93,0,0,0,6.1-6.5c1.6-2.3,2.7-4.7,4.1-7.1,1.3-2.1,2.9-4.2,4.2-6.4l4.9-8.3,2.8-4.9A1.53,1.53,0,0,0,109.94,97.81Zm-26.7,4.5a.77.77,0,0,0,.1-.3c1.2-3.7,1.9-7.5,3.8-11.2l1.6-2.8c.4-.6,1-1.7,1.7-2,1.6-.5,2.4,2.2,2.4,3.3l-.1,2.3c-.1.7.2,1.1.1,1.7s-.6,1.1-.9,1.7l-1.5,2.6a32.71,32.71,0,0,1-8.2,8.4C82.64,104.71,82.84,103.51,83.24,102.31Z"/>
  <path d="M190.88,33.59a18,18,0,0,0-5.7-2.3c-5.1-1.4-9.9-1.7-14.9.2a31.69,31.69,0,0,0-12.6,9.1c-2.3,2.7-6.3,7.3-6.4,11.2l.6-1.2a26.81,26.81,0,0,0-1.5,6.4,5.46,5.46,0,0,1,.1-1.8c-1.7.2-.4,6.8-.1,7.7a39.19,39.19,0,0,0,4.8,12.7c3.1,5.3,6.4,10.5,9.3,15.9l2.4,4.6a12.68,12.68,0,0,0,1.2,2.3,3.19,3.19,0,0,1,.6.7,11.26,11.26,0,0,0,.8,2.2,7,7,0,0,1-.9-1.7c-.1.8.7,1.7.9,2.2a11.56,11.56,0,0,1,.7,3.1,19.07,19.07,0,0,1-1.6,8.2,23.6,23.6,0,0,1-11.4,11.7c-3.7,1.6-8.3,2.1-10.6-1.8-1.9-3.2-1.8-7.4-1.5-10.9a31.6,31.6,0,0,1,1.1-6c.4-1.8,3.3-6.9,2.1-8.5-2.7-3.8-9.4,7.8-10.3,9.7-3.6,7.9-4.3,20.3,5.6,23.8,6.9,2.4,15.4.8,21.6-2.6,2.2-1.2,11.5-6.5,11-9.7l-2,1.8c6.7-7.4,8.7-15.7,4.6-25.1-2-4.4-5-7.7-8-11.4-2.3-3-3.2-6.1-5.1-9.3,2.5,3.8,5.5,7.5,8.2,11.3-5.7-9.6-15.8-20.7-11.5-32.8a28.6,28.6,0,0,1,10.9-13.4,21.84,21.84,0,0,1,9.4-3.7c4.1-.2,3.5,2.5,3.8,5.2,0-1.7.8-3.5-1.1-4.9-1.7-1.1-4.1-.4-5.9.2a28.59,28.59,0,0,0-10.9,6.4,29.51,29.51,0,0,1,7.4-5.3c2.4-1.2,5.9-2.7,8.6-2,6.5,2,.1,14.9-2.3,19.2.4-1,1.1-3,1.2-3.2-1.5.1-3.6,8.1-4.3,8.6-2.3,3,.9,3,2.9,1.4,2.2-1.7,3.9-4.2,5.5-6.3a57.68,57.68,0,0,0,5.7-9.1c1.1-2.1,3-5.6,1.4-7.8C193.68,36.69,192.88,34.89,190.88,33.59ZM141.28,129c-6.5-6.3-5.1-16-.9-23.6C136.78,112.39,136.38,124.19,141.28,129Zm20-66.6a8.87,8.87,0,0,1,.2,1.5Z"/>
  <path d="M244,81.5c-.3-1.9-1.7-1.2-2.6-.2-.5.6-6.5,9.3-6.2,9.8a1.08,1.08,0,0,0,.7-.3c-1.8,2.3-4.8,4.7-7.1,6.8-2.3,2.3-4.6,6.2-8.1,6.8a3.42,3.42,0,0,1-1.1.1c-1.5,0-6.1-6.2-6.6-7.5.2,1.1,3.3,5.6,4.1,6.6-2.8-2.5-4.7-6.6-5.8-10.3.2.3.4.6.5.6.3-.1-.4-2.3-.4-2.4.2-.2,1.8-.9,2.2-1.2a73.1,73.1,0,0,0,6.5-4.3A56.25,56.25,0,0,0,231,76.2c3.3-4.3,5.9-10,.4-13.7s-11.9,2.9-15.2,6.8A92.86,92.86,0,0,0,208,81.5c-1.1,2.1-2.2,4.1-3.2,6.2-.6,1.2-2.7,4.2-2.3,5.5,0,0,1.8-2.8,1.8-2.9-.6,1.2-1.2,2.5-1.7,3.7,0-.1-1.4,2.5-1.6,3l-2.3,5.5c.6-5.2,1.3-10.5,2.2-15.8a14.27,14.27,0,0,1,2.4-6.6c1.3-2,2.6-4.1,3.7-6.1,2.7-4.5,5.1-9.3,7.5-14.1,1.8-3.5,2.9-8,5-11A40.36,40.36,0,0,0,225,35.1c.6-2.6,0-4.6-1.5-7-2.8-4.2-7.9-7.6-12.6-4.7-3.9,2.4-6.3,7-8,11a69,69,0,0,0-2.9,8l-1.4,4.8c-.2.9-.4,2.4-.6,3.2a.35.35,0,0,1-.1.2c-.6,2.3-1,4.4-1.5,6.7a14.6,14.6,0,0,1,.3-2.2c-.5.1-1.6,5.5-1.8,6.2-.7,2.7-1.2,5.4-1.7,8.3a113.83,113.83,0,0,0-2,15.4c-.2,5.6-1.1,11.2-1.7,16.8-.1,2.4-.6,4.9-.3,7.3a7.12,7.12,0,0,0,1.5,3.7,15.77,15.77,0,0,0,2.3,1.4.35.35,0,0,1-.1-.2,5.26,5.26,0,0,0,2.6.6c-.8.1-1.8.1-2-.2.9,1,3.7-.1,3.9-.2,2.4-.9,2.5-4.4,3.6-6.5l4.1-9.3a24.6,24.6,0,0,0,3.2,6.5c.3.5,4,4.5,4.2,4.2a.76.76,0,0,0-.2-.4,4.19,4.19,0,0,0,1.6,1.1c-.1.1-.5-.3-.6,0-.5,1.1,4.3,2.1,5.1,2,1.5-.3,2.7-1.5,4-2.3a14.43,14.43,0,0,0,3.2-2.3c1.2-1.2-.2-.4.6-1.2v.2c.3-.5,4.8-3.8,5-4,2.3-2.2,3.9-4.9,5.8-7.4a50.33,50.33,0,0,0,4.1-6.5c1.4-2,3.4-3.8,2.8-6.6Zm-30.1-49.9c.9-1.7,3.6-5.8,5.8-3.5s-.3,9-1.2,11.6c-1.2,3.9-2.8,7.7-4.4,11.5l-2.3,5.1c-.9,1.8-2.1,3.5-2.5,5.2a22,22,0,0,1,1.5-2.6l1.9-4.1c1.5-3.2,2.8-6.3,4.1-9.5.7-1.5,1.4-3.3,2.1-5.1-.8,2.4-1.7,4.7-2.6,7.1a193.65,193.65,0,0,1-13.2,26.6c1.1-7.3,2.2-14.6,4-21.9C208.65,45.1,210.35,37.7,213.85,31.6ZM210,88.7a142.34,142.34,0,0,1,9.7-15.8c.8-1.2,5.5-8.1,7.5-7s-3.4,8.9-4.1,10C219.55,80.8,215.25,85.9,210,88.7Zm-4.2-39c.9-3.3,1.7-6.7,2.8-10.2.1-.4,1-2,1.4-3-.4,1.5-1.7,4.1-1.8,4.7-1.2,4.7-1.9,9.4-2.9,14.1-1.1,5.6-2.1,11.1-2.9,16.7l.1-.9v.2c0-.1.1-.1.1-.2A111.79,111.79,0,0,1,205.75,49.7Zm-7.8.7-.1.1A.1.1,0,0,0,198,50.4Zm-.1.2v0Z"/>
  <g>
    <path d="M264.42,78.55c-.4-1.4-1.9-.8-2.5-.1-.9.8-5.4,8.6-4.9,9.1a.91.91,0,0,0,.7-.3,47,47,0,0,1-5.7,6.3c-1.1,1.1-3.7,4.2-5.5,3.6-4-1.5,1.9-15.4,1.6-15.5s-2.3,6.3-2.7,7.8a56.08,56.08,0,0,1,3.7-11.6c-.1.3-.3.9-.1.9s1.6-2.4,1.2-2.6a.4.4,0,0,0-.4.2c.3-.4.8-.5.7-1.2-.1-1.1-2.8-1.9-3.7-2.1-2.2-.6-4.3-.6-5.7.7-2,1.6-2.1,4.2-2.7,6.6-.1.7-1.2,8.6-.8,8.7.2-.1.2-.2.3-.5l-.1,2c-.1,0,0-.6-.2-.5-.9.1-.2,4,0,4.5.7,1.9,2.4,3.1,3.8,4.6a8.15,8.15,0,0,0,2.6,2.3c1.4.8.4-.1,1.4.3h-.2c0,.7,4.2,1.2,5.1,1,3.7-1.3,5.8-6.3,7.6-9.5,1.7-2.9,3.1-5.7,4.6-8.6C263.42,83.15,265.12,80.55,264.42,78.55Z"/>
    <path d="M244.92,93.25v.1l-.1.7.1-.9C245,93.05,245,93.05,244.92,93.25Z"/>
  </g>
  <path d="M301.48,74.72c-.9-2.5-2.2-.6-2.7.4a70.51,70.51,0,0,1-5.1,6c-2.2,2.5-4.4,5.1-6.8,7.5-1.2,1.2-2.6,3-4.2,3.7-.2.1-.9.3-.9.4l-.1-.1a9.91,9.91,0,0,1-.2-1.8,14.66,14.66,0,0,1,.5-4.2,21.59,21.59,0,0,0,.6-4l-.5.7c.5-1.4,1.2-2.8,1.8-4.3a15.12,15.12,0,0,0-3.1,6.2,24.59,24.59,0,0,0-1.3,4.9c-.1-2.4,1.2-5.8,1.7-7.3a67.66,67.66,0,0,1,2.8-7.5c2.1-4.2,7.3-8.5,4.9-13.7-2.2-4.9-6.2-4.5-9-1.2-1.2,1.7-12.1,19.7-11.7,19.9,0,0,.9-1.4,2.1-3.5L265.08,87c-.1,0,.8-2,.7-2.1s-.8.8-.8,1.2c-.1-2.3.4-4.7.3-7a19.27,19.27,0,0,1-.1-2.4,27.09,27.09,0,0,1,1-4.3c.3-.9,1.1-1.8,1.2-2.7.3-1.5.1-2,.9-3.3s1.9-2.4,2.5-3.5c1.5-2.9-1.9-4.4-3.6-4.5a6.54,6.54,0,0,0-4.1.9c-1.3,1-.9,1.8-1.1,3-.1,1.6-1,3.4-1.4,4.9-.6,2.4-1.1,4.8-1.5,7.1a62.75,62.75,0,0,0-1.5,7,32.45,32.45,0,0,0,0,5.4c0,2-.1,3.3,1.1,4.9s4.6,4.2,6.3,1.5l.5.8c1.3-4.2,3.7-8.2,5.5-12.4.8-1.9,2.3-3.3,3.5-5.3,1.6-2.8,3-5.7,4.9-8.4a15.19,15.19,0,0,0-1.2,3.3c.2-.1.3-.4.5-.6l-1.1,3.2c-.1-.1.3-.9.1-.9-.8-.1-2.3,6.2-2.4,6.8a29,29,0,0,0-.2,7.2c0,1.2,0,2.4.1,3.6a8.94,8.94,0,0,0,1.1,3.5,7,7,0,0,0,1.6,1.9c.1,0,1.4.9.8.1l.7.6-.5.1c0,.6,4.2,2.2,4.9,2.4,3.2.6,6-3.3,7.7-5.6,2.2-3.1,4-6.7,6-10C298.58,81.52,302.28,77.32,301.48,74.72Z"/>
  <path d="M338.4,70.15c-.9-2.5-2.2-.6-2.7.4a70.51,70.51,0,0,1-5.1,6c-2.2,2.5-4.4,5.1-6.8,7.5-1.2,1.2-2.6,3-4.2,3.7-.2.1-.9.3-.9.4h0a9.91,9.91,0,0,1-.2-1.8,14.66,14.66,0,0,1,.5-4.2,21.59,21.59,0,0,0,.6-4l-.5.7c.5-1.4,1.2-2.8,1.8-4.3a15.12,15.12,0,0,0-3.1,6.2,24.59,24.59,0,0,0-1.3,4.9c-.1-2.5,1.1-5.9,1.7-7.4a67.66,67.66,0,0,1,2.8-7.5c2.1-4.2,7.3-8.5,4.9-13.7-2.2-4.9-6.2-4.5-9-1.2-1.3,1.6-12.1,19.7-11.8,19.9,0,0,.9-1.4,2.1-3.5L302,82.35c-.1,0,.8-2,.7-2.1s-.8.8-.8,1.2c-.1-2.3.4-4.7.3-7a19.27,19.27,0,0,1-.1-2.4,27.09,27.09,0,0,1,1-4.3c.3-.9,1.1-1.8,1.2-2.7.3-1.5.1-2,.9-3.3s1.9-2.4,2.5-3.5c1.5-2.9-1.9-4.4-3.6-4.5a6.54,6.54,0,0,0-4.1.9c-1.3,1-.9,1.8-1.1,3-.1,1.6-1,3.4-1.4,4.9-.6,2.4-1.1,4.8-1.5,7.1a62.75,62.75,0,0,0-1.5,7,32.45,32.45,0,0,0,0,5.4c0,2-.1,3.3,1.1,4.9s4.6,4.2,6.3,1.5l.5.8c1.3-4.2,3.7-8.2,5.5-12.4.8-1.9,2.3-3.3,3.5-5.3,1.6-2.8,3-5.7,4.9-8.4a15.19,15.19,0,0,0-1.2,3.3c.2-.1.3-.4.5-.6l-1.1,3.2c-.1-.1.3-.9.1-.9-.8-.1-2.3,6.2-2.4,6.8a29,29,0,0,0-.2,7.2c0,1.2,0,2.4.1,3.6a8.94,8.94,0,0,0,1.1,3.5,7,7,0,0,0,1.6,1.9c.1,0,1.4.9.8.1l.7.6-.4-.2c0,.6,4.2,2.2,4.9,2.4,3.2.6,6-3.3,7.7-5.6,2.2-3.1,4-6.7,6-10C335.5,76.85,339.2,72.65,338.4,70.15Z"/>
  <g class="cls-12">
    <g class="cls-13">
      <g class="cls-13">
        <path d="M252.6,63.1c2.7-.5,6.6.8,13.2,3.3-6.5-2.9-10.1-4.6-11.7-6.9,1.2-1.2,3.3-2.3,6.5-3.9a32.62,32.62,0,0,1-7.3,1.9c-.5-2.7.8-6.6,3.3-13.2-2.9,6.5-4.6,10.1-6.9,11.7-1.2-1.2-2.3-3.3-3.9-6.5a32.62,32.62,0,0,1,1.9,7.3c-2.7.5-6.6-.8-13.2-3.3,6.5,2.9,10.1,4.6,11.7,6.9-1.2,1.2-3.3,2.3-6.5,3.9a32.62,32.62,0,0,1,7.3-1.9c.5,2.7-.8,6.6-3.3,13.2,2.9-6.5,4.6-10.1,6.9-11.7,1.2,1.2,2.3,3.3,3.9,6.5A32.62,32.62,0,0,1,252.6,63.1Z"/>
      </g>
    </g>
  </g>
  <g class="cls-14">
    <g class="cls-15">
      <path class="cls-10" d="M41.1,59.1H50v8.6H41.1Z"/>
    </g>
  </g>
  <g class="cls-16">
    <g class="cls-17">
      <path class="cls-10" d="M54,46.8H74.9V60.2H54Z"/>
    </g>
  </g>
  <g class="cls-18">
    <g class="cls-19">
      <path class="cls-10" d="M10.7,114.7H22v27.4H10.7Z"/>
    </g>
  </g>
  <g class="cls-20">
    <g class="cls-21">
      <path class="cls-10" d="M79.3,78.6H98.9V97.4H79.3Z"/>
    </g>
  </g>
  <g class="cls-22">
    <g class="cls-23">
      <path class="cls-10" d="M91.4,107.9h13.8v15.3H91.4Z"/>
    </g>
  </g>
  <g class="cls-24">
    <g class="cls-25">
      <path class="cls-10" d="M133.6,104.7h13.3v26.4H133.6Z"/>
    </g>
  </g>
  <g class="cls-26">
    <g class="cls-27">
      <path class="cls-10" d="M170.4,31.9h24.5V49.8H170.4Z"/>
    </g>
  </g>
  <g class="cls-28">
    <g class="cls-29">
      <path class="cls-10" d="M212.3,61.5h19.4V77.7H212.3Z"/>
    </g>
  </g>
  <g class="cls-30">
    <g class="cls-31">
      <path class="cls-10" d="M207.7,24.1H223v15H207.7Z"/>
    </g>
  </g>
  <g class="cls-32">
    <g class="cls-33">
      <path class="cls-10" d="M275.5,83.4h14.8v13H275.5Z"/>
    </g>
  </g>
  <g class="cls-34">
    <g class="cls-35">
      <path class="cls-10" d="M296,54h14.3V74.6H296Z"/>
    </g>
  </g>
</svg>
