<svg xmlns="http://www.w3.org/2000/svg" xmlns:xlink="http://www.w3.org/1999/xlink" width="332.57" height="137.85" viewBox="0 0 332.57 137.85">
  <defs>
    <style>
      .cls-1 {
        fill: none;
      }

      .cls-2 {
        clip-path: url(#clip-path);
      }

      .cls-3 {
        clip-path: url(#clip-path-2);
      }

      .cls-10, .cls-4, .cls-7 {
        fill: #ff66c4;
      }

      .cls-4 {
        fill-opacity: 0.3;
      }

      .cls-5 {
        clip-path: url(#clip-path-4);
      }

      .cls-6 {
        clip-path: url(#clip-path-5);
      }

      .cls-7 {
        fill-opacity: 0.5;
      }

      .cls-8 {
        clip-path: url(#clip-path-7);
      }

      .cls-9 {
        clip-path: url(#clip-path-8);
      }

      .cls-11 {
        fill: #fff;
      }

      .cls-12 {
        clip-path: url(#clip-path-9);
      }

      .cls-13 {
        clip-path: url(#clip-path-10);
      }

      .cls-14 {
        clip-path: url(#clip-path-12);
      }

      .cls-15 {
        clip-path: url(#clip-path-13);
      }

      .cls-16 {
        clip-path: url(#clip-path-14);
      }

      .cls-17 {
        clip-path: url(#clip-path-15);
      }

      .cls-18 {
        clip-path: url(#clip-path-16);
      }

      .cls-19 {
        clip-path: url(#clip-path-17);
      }

      .cls-20 {
        clip-path: url(#clip-path-18);
      }

      .cls-21 {
        clip-path: url(#clip-path-19);
      }

      .cls-22 {
        clip-path: url(#clip-path-20);
      }

      .cls-23 {
        clip-path: url(#clip-path-21);
      }

      .cls-24 {
        clip-path: url(#clip-path-22);
      }

      .cls-25 {
        clip-path: url(#clip-path-23);
      }

      .cls-26 {
        clip-path: url(#clip-path-24);
      }

      .cls-27 {
        clip-path: url(#clip-path-25);
      }

      .cls-28 {
        clip-path: url(#clip-path-26);
      }

      .cls-29 {
        clip-path: url(#clip-path-27);
      }

      .cls-30 {
        clip-path: url(#clip-path-28);
      }

      .cls-31 {
        clip-path: url(#clip-path-29);
      }

      .cls-32 {
        clip-path: url(#clip-path-30);
      }

      .cls-33 {
        clip-path: url(#clip-path-31);
      }

      .cls-34 {
        clip-path: url(#clip-path-32);
      }

      .cls-35 {
        clip-path: url(#clip-path-33);
      }
    </style>
    <clipPath id="clip-path" transform="translate(2.89)">
      <rect class="cls-1" x="223.81" y="21.88" width="32" height="33.3"/>
    </clipPath>
    <clipPath id="clip-path-2" transform="translate(2.89)">
      <rect class="cls-1" x="222.59" y="21.19" width="33.9" height="33.9" transform="translate(113.82 245.58) rotate(-67.83)"/>
    </clipPath>
    <clipPath id="clip-path-4" transform="translate(2.89)">
      <rect class="cls-1" x="222.31" y="21.38" width="32" height="33.3"/>
    </clipPath>
    <clipPath id="clip-path-5" transform="translate(2.89)">
      <rect class="cls-1" x="221.25" y="20.7" width="33.9" height="33.9" transform="translate(113.44 244.03) rotate(-67.83)"/>
    </clipPath>
    <clipPath id="clip-path-7" transform="translate(2.89)">
      <rect class="cls-1" x="48.11" y="122.78" width="15.6" height="5.3"/>
    </clipPath>
    <clipPath id="clip-path-8" transform="translate(2.89)">
      <path class="cls-1" d="M48.71,125.28c3.8,1.6,5.3,1.7,6.9,1.4,2.3-.5,8-3.9,8.1-3.8s-5.7,4.2-8.1,4.8a9.88,9.88,0,0,1-4.6-.3c-1.1-.3-2.7-.8-2.8-1.3-.1-.3.5-.8.5-.8"/>
    </clipPath>
    <clipPath id="clip-path-9" transform="translate(2.89)">
      <rect class="cls-1" x="220.71" y="21.38" width="32" height="33.3"/>
    </clipPath>
    <clipPath id="clip-path-10" transform="translate(2.89)">
      <rect class="cls-1" x="219.66" y="20.71" width="33.9" height="33.9" transform="translate(112.44 242.56) rotate(-67.83)"/>
    </clipPath>
    <clipPath id="clip-path-12" transform="translate(2.89)">
      <rect class="cls-1" x="31.71" y="40.78" width="0.7" height="0.6"/>
    </clipPath>
    <clipPath id="clip-path-13" transform="translate(2.89)">
      <path class="cls-1" d="M32.41,41c-.9.4-.1-.2-.1-.2"/>
    </clipPath>
    <clipPath id="clip-path-14" transform="translate(2.89)">
      <rect class="cls-1" x="44.31" y="27.98" width="13.2" height="6.2"/>
    </clipPath>
    <clipPath id="clip-path-15" transform="translate(2.89)">
      <path class="cls-1" d="M44.41,30.48c4.2-2.5,6.6-2.3,8-2a4.41,4.41,0,0,1,2.5,1.1c1,.9,2.7,4.2,2.5,4.4s-3-3.8-4.8-4.5a8.35,8.35,0,0,0-5.4-.1c-1,.4-1.7,2-2.2,1.9-.3,0-.6-.8-.6-.8"/>
    </clipPath>
    <clipPath id="clip-path-16" transform="translate(2.89)">
      <rect class="cls-1" x="0.81" y="96.08" width="3.3" height="19.7"/>
    </clipPath>
    <clipPath id="clip-path-17" transform="translate(2.89)">
      <path class="cls-1" d="M4.11,96.48c0,7.7-2.7,19.2-3,19.2s.1-6.3.6-9c.4-2.2,1.5-4.1,1.7-6,.2-1.6-.7-4.1-.3-4.5.2-.1,1,.3,1,.3"/>
    </clipPath>
    <clipPath id="clip-path-18" transform="translate(2.89)">
      <rect class="cls-1" x="69.41" y="59.98" width="12.2" height="11.3"/>
    </clipPath>
    <clipPath id="clip-path-19" transform="translate(2.89)">
      <path class="cls-1" d="M79.81,70.58c.1-7.5-.9-9.1-2-9.5s-2.9.4-4.1,1.3c-1.6,1.1-4.1,5.4-4.1,5.4s.4-.7.6-.7.4.7.3.8a.94.94,0,0,1-.9-.4c-.2-.5.7-2.1,1.3-3.1a10.17,10.17,0,0,1,3-3.2,6.84,6.84,0,0,1,4.3-1,4.59,4.59,0,0,1,2.7,2.6c.7,1.4.5,3.9.4,5.4-.1,1.1-.3,2.7-.7,2.9-.2.1-.8-.5-.8-.5"/>
    </clipPath>
    <clipPath id="clip-path-20" transform="translate(2.89)">
      <rect class="cls-1" x="81.81" y="92.38" width="3.3" height="4.7"/>
    </clipPath>
    <clipPath id="clip-path-21" transform="translate(2.89)">
      <path class="cls-1" d="M81.81,96.38c5.9-6.8,2,.2.9.5-.4.1-.9-.5-.9-.5"/>
    </clipPath>
    <clipPath id="clip-path-22" transform="translate(2.89)">
      <rect class="cls-1" x="123.71" y="86.18" width="5.7" height="18.8"/>
    </clipPath>
    <clipPath id="clip-path-23" transform="translate(2.89)">
      <path class="cls-1" d="M125.91,86.38c-.3,13.3,3.5,18.2,3.3,18.4s-3.5-3.8-4.4-5.5a7.81,7.81,0,0,1-.9-3.4c-.2-2.3.2-8.5,1-9.4a1.91,1.91,0,0,1,1-.1"/>
    </clipPath>
    <clipPath id="clip-path-24" transform="translate(2.89)">
      <rect class="cls-1" x="160.71" y="13.68" width="17.1" height="10"/>
    </clipPath>
    <clipPath id="clip-path-25" transform="translate(2.89)">
      <path d="M160.81,16.38c8.8-3.1,11.6-2.5,13.2-1.7a5.27,5.27,0,0,1,2.6,2.5c.8,1.5,1.3,5.6.8,6.3-.2.3-1,.1-1,.1h1s-.7.2-1-.1c-.6-.6.1-4.1-.5-5.5a4.91,4.91,0,0,0-2.2-2.3,12.05,12.05,0,0,0-6.4-1c-2.1.3-5.3,3-6.1,2.7-.3-.2-.4-1-.4-1"/>
    </clipPath>
    <clipPath id="clip-path-26" transform="translate(2.89)">
      <rect class="cls-1" x="202.51" y="42.98" width="11.7" height="8.5"/>
    </clipPath>
    <clipPath id="clip-path-27" transform="translate(2.89)">
      <path class="cls-1" d="M202.61,50.48c9.7-7.7,11.3-7.2,11.4-6.9s-.6.8-.6.8.8-.6.7-.7a3.22,3.22,0,0,0-2.3.2c-1.9.8-6.1,5.7-7.7,6.8-.6.4-1.2.8-1.4.7s-.1-.9-.1-.9"/>
    </clipPath>
    <clipPath id="clip-path-28" transform="translate(2.89)">
      <rect class="cls-1" x="197.91" y="5.28" width="7.8" height="7.7"/>
    </clipPath>
    <clipPath id="clip-path-29" transform="translate(2.89)">
      <path class="cls-1" d="M205.11,6.78c-4.1.1-6.9,6.2-7.1,6.1s1.8-5.8,3.3-6.8c1.1-.8,3.8-.7,4.1-.3.2.2-.3,1-.3,1"/>
    </clipPath>
    <clipPath id="clip-path-30" transform="translate(2.89)">
      <rect class="cls-1" x="265.51" y="64.88" width="7.4" height="5.9"/>
    </clipPath>
    <clipPath id="clip-path-31" transform="translate(2.89)">
      <path class="cls-1" d="M266.91,65.08c.6,4.7,4.6,2.4,5.4,2.8.3.1.5.8.5.8l-.5-.8s.5.7.3,1c-.4.7-4.4,1.9-5.5,1.2s-1.6-4.3-1.2-4.9c.2-.2,1-.1,1-.1"/>
    </clipPath>
    <clipPath id="clip-path-32" transform="translate(2.89)">
      <rect class="cls-1" x="286.41" y="35.58" width="6.4" height="12.8"/>
    </clipPath>
    <clipPath id="clip-path-33" transform="translate(2.89)">
      <path class="cls-1" d="M292.81,36.58c-4.4,5.5-6.2,11.9-6.4,11.8a39.78,39.78,0,0,1,2.3-8.6,12.64,12.64,0,0,1,2.4-3.2c.4-.4.9-1,1.2-.9s.5.9.5.9"/>
    </clipPath>
  </defs>
  <g id="Layer_2" data-name="Layer 2">
    <g id="Layer_1-2" data-name="Layer 1">
      <g class="cls-2">
        <g class="cls-3">
          <g class="cls-3">
            <path class="cls-4" d="M242,41.28c2.7-.5,6.6.8,13.2,3.3-6.5-2.9-10.1-4.6-11.7-6.9,1.2-1.2,3.3-2.3,6.5-3.9a32.62,32.62,0,0,1-7.3,1.9c-.5-2.7.8-6.6,3.3-13.2-2.9,6.5-4.6,10.1-6.9,11.7-1.2-1.2-2.3-3.3-3.9-6.5a32.62,32.62,0,0,1,1.9,7.3c-2.7.5-6.6-.8-13.2-3.3,6.5,2.9,10.1,4.6,11.7,6.9-1.2,1.2-3.3,2.3-6.5,3.9a32.62,32.62,0,0,1,7.3-1.9c.5,2.7-.8,6.6-3.3,13.2,2.9-6.5,4.6-10.1,6.9-11.7,1.2,1.2,2.3,3.3,3.9,6.5A32.62,32.62,0,0,1,242,41.28Z" transform="translate(2.89)"/>
          </g>
        </g>
      </g>
      <g class="cls-5">
        <g class="cls-6">
          <g class="cls-6">
            <path class="cls-7" d="M240.61,40.78c2.7-.5,6.6.8,13.2,3.3-6.5-2.9-10.1-4.6-11.7-6.9,1.2-1.2,3.3-2.3,6.5-3.9a32.62,32.62,0,0,1-7.3,1.9c-.5-2.7.8-6.6,3.3-13.2-2.9,6.5-4.6,10.1-6.9,11.7-1.2-1.2-2.3-3.3-3.9-6.5a32.62,32.62,0,0,1,1.9,7.3c-2.7.5-6.6-.8-13.2-3.3,6.5,2.9,10.1,4.6,11.7,6.9-1.2,1.2-3.3,2.3-6.5,3.9a32.62,32.62,0,0,1,7.3-1.9c.5,2.7-.8,6.6-3.3,13.2,2.9-6.5,4.6-10.1,6.9-11.7,1.2,1.2,2.3,3.3,3.9,6.5A32.62,32.62,0,0,1,240.61,40.78Z" transform="translate(2.89)"/>
          </g>
        </g>
      </g>
      <g class="cls-8">
        <g class="cls-9">
          <path d="M44.31,119h23.4v12.7H44.31Z" transform="translate(2.89)"/>
        </g>
      </g>
      <path class="cls-4" d="M52.09,29.45c-3.2,1.4-6.1,5.9-8.2,8.6-1.3,1.6-2.7,3.3-3.9,5.1-.8,1.2-3.1,3.7-3.1,5.2.1.1.1.1.2.1l-1.3,2.1a12.16,12.16,0,0,1,.8-1.7c-.5.3-1.1,2.3-1.1,2.3-2.5,4.3-5.5,8.3-7.8,12.8a119.43,119.43,0,0,0-6.4,15.4,130.8,130.8,0,0,1,3.2-15.1l-1.9,5.9.8-2.6a112.57,112.57,0,0,0-6.2,21.8,194.75,194.75,0,0,1,14.2-48.1c-.2.7-.5,1.6-.3,1.6.4.1,2.1-4.4,1.7-4.5l-.3.3a3.58,3.58,0,0,0-.1-3.6c-.9-1.7-2.9-4.5-5-3.2-1.3.7-2.2,3.5-2.6,4.6-.3.6-.3,1.5-.5,1.9-.4.7-1.1,1.1-1.6,2.1a48.3,48.3,0,0,0-2.5,7.6c-.4,1.4-4.7,15-4.5,15.1.2-.1.3-.4.4-.6-.2,1-.5,2-.8,3.1-.1-.1.2-.9,0-.9-1-.1-3.1,9.3-3.2,10.2a35.17,35.17,0,0,1-1.1,6.2,30.59,30.59,0,0,0-1,4.1c0,.1-.2,2.9.1,1.9a2.77,2.77,0,0,1-.1.9.4.4,0,0,0-.2-.4c-.3-.1-.6,3.2-.7,3.7-.6,1.7-1.2,3.5-1.7,5.3-1.1,4.8-1.2,9.5-1.7,14.4-.3,3.7-2,9.7.1,13.1,1.9,3.2,7.1,2.3,9.2-.5,0,.2.2.3.3.4.1-8.3,2.2-16.9,4.5-24.9.8,1.1.5,1.7,1.2,3,.8,2.1,2.5,3.8,3.7,5.6.5.8,6.6,9.7,6.8,9.6s-.1-.4-.1-.5a13,13,0,0,0,1.5,2c-.1,0-.4-.5-.6-.4-.8.8,4.6,6.6,5.2,6.9,1.4,1.3,2.6,2.4,3.8,3.7a11.23,11.23,0,0,0,2.3,2.1c.1.1,1.5.9,1.3.5.1.1.3.2.5.4a.35.35,0,0,0-.2-.1c-.1.3,5.8,4.6,6.2,4.8a10.82,10.82,0,0,0,6.6.9c6.1-1.3,10.2-7.2,13.1-12.1a4.13,4.13,0,0,0,.8-3.3c-.6-2.9-1.5-1.4-2.3-.2-1.6,2.2-4.8,4.8-7.6,5.1a7.51,7.51,0,0,1-3.3-.4c-.5-.2-4.5-2-4.5-1.9a3,3,0,0,0,.5.7c-2-1.3-4.3-3.8-6.3-5.5l-8.6-7.6c-1.1-1-9.3-10-12.9-14.6l4.2,5.7c-2.3-2.8-4.5-5.7-6.6-8.8,5.5-.4,11.4-5.4,15.5-8.8,3.7-3.2,6.2-7.9,9.2-12.2,6-8.1,11.4-17.8,12-28.3-.7,14.4-7.8,26.5-17.2,36.9,3-.6,6-5.1,8.1-7.9a69.06,69.06,0,0,0,6.3-9.6,46.23,46.23,0,0,0,4.8-12.5c.4-1.7,2.1-6.8,1.4-8.9,0,0-.2.8-.4,1.4a21.31,21.31,0,0,0-.3-5.6c.2.4.5,1,.4,1.2.2-.1-.1-1.5-.1-2.1,0,0-.2-.7-.1-.5C63,32.75,57.49,27.15,52.09,29.45Zm1.5,13.2c-.1.4-.1.3,0,.1.4,7.5-2.9,15.4-6.4,21.9a89.26,89.26,0,0,1-6.1,9.8,41.26,41.26,0,0,1-3.4,3.9c-.9,1.1-2.8,2.4-3.6,3.8.8-1,2.6-2.3,3.4-3.1,1.5-1.6,3-3.6,4.5-5.4a76.29,76.29,0,0,0,6.1-9.8c-5.4,10.7-13.4,20.4-23.8,26.3.8-.7,2.8-2,2.8-2.1-.2-.2-4.3,2.3-4.7,2.6,1.1-3,2.1-6,3.3-9,.4-.7,3-7.8,3-7.8-.2,0-.4.2-.5.5,3.8-8.3,9.1-16.8,14.1-24.6,1.6-2.4,10.6-17.7,11.3-7.3Zm-24.9,7.6c.2-.5.8-3.1.7-2.6l-2,6.5C27.79,52.85,28.29,51.55,28.69,50.25Zm-3.8,45.5c-.2.1.6,1.1,1.6,2.5A27.23,27.23,0,0,1,24.89,95.75Zm9.4,12.2s0-.1.1.1v.1Zm0,0c-.1,0-.1-.1-.2-.2C34.09,107.85,34.19,108.05,34.29,108Zm-6.9-31.9c0-.1.1-.1.1-.2A.35.35,0,0,1,27.39,76.05Z" transform="translate(2.89)"/>
      <path class="cls-4" d="M101.11,79.16c0,.1,0,.1-.1,0v-.1c-2.1-2.7-3.9,1.6-4.7,3.1-1.5,2.7-3,5.3-4.6,7.8a55.88,55.88,0,0,0-3.9,6.5c0,.2-.1.8-.1.8a24.26,24.26,0,0,1-1.4,2c-.9,1.1-1.7,2.3-2.7,3.4-1.4,1.7-9.5,11.4-11.3,6.1-1-2.6-.5-6.1-.3-8.8.1-1.4.3-2.8.3-4.2.1-1.1-.4-2.2,0-3.3.2-.7.4-.6,1.1-.9l1.8-.9a22.31,22.31,0,0,0,3.3-2,38.26,38.26,0,0,0,4.1-3.9c3-3.2,6.2-7,7-11.5a7.93,7.93,0,0,0-1.5-7c-1.6-1.7-4.2-2.3-6.4-2.5-6-.3-10,3.6-12.8,8.4A43.6,43.6,0,0,0,62.71,91c-.4,3.2-.4,6.4-.5,9.8s-.1,6.4,2,9.2c-.2-1.1-.6-2-.7-3-.1-.5.1-1.1,0-1.5,0-.2-.3-.8-.4-1.2a13.13,13.13,0,0,1,.1-2.8,25.82,25.82,0,0,0-.3-2.9,10,10,0,0,1,.6-3c.2-.9.2-1.7.4-2.6s.3-1.7.6-2.6a9.61,9.61,0,0,1,.7-2c-.2,1-.7,2-.9,2.9a18,18,0,0,0,.3,4c0,1.4-.3,2.9-.3,4.4s-.5,2.8-.6,4.3a11,11,0,0,0-.1,3.6,10.81,10.81,0,0,0,.5,2.1c.2.9.8,1.3,1.5,1.9a14.78,14.78,0,0,0,7.7,3.8,7.29,7.29,0,0,0,5.5-1.2,28.93,28.93,0,0,0,6.1-6.5c1.6-2.3,2.7-4.7,4.1-7.1,1.3-2.1,2.9-4.2,4.2-6.4l4.9-8.3,2.8-4.9A1.24,1.24,0,0,0,101.11,79.16Zm-26.7,4.5a.77.77,0,0,0,.1-.3c1.2-3.7,1.9-7.5,3.8-11.2l1.5-2.8c.4-.6,1-1.7,1.7-2,1.6-.5,2.4,2.2,2.4,3.3l-.1,2.4c0,.7.2,1.1.2,1.6-.1.7-.6,1.1-.9,1.7L81.61,79a32.71,32.71,0,0,1-8.2,8.4C73.81,86.06,74,84.86,74.41,83.66Z" transform="translate(2.89)"/>
      <path class="cls-4" d="M182.05,14.93a18,18,0,0,0-5.7-2.3c-5.1-1.4-9.9-1.7-14.9.2a31.69,31.69,0,0,0-12.6,9.1c-2.3,2.7-6.3,7.3-6.4,11.2l.6-1.2a26.81,26.81,0,0,0-1.5,6.4,5.46,5.46,0,0,1,.1-1.8c-1.7.2-.4,6.8-.1,7.7a39.19,39.19,0,0,0,4.8,12.7c3.1,5.3,6.4,10.5,9.3,15.9l2.6,4.6a12.68,12.68,0,0,0,1.2,2.3c-.1,0,.4.8.4.7a11.26,11.26,0,0,0,.8,2.2,7,7,0,0,1-.9-1.7c-.1.8.7,1.7.9,2.2a11.56,11.56,0,0,1,.7,3.1,19.07,19.07,0,0,1-1.6,8.2,23.6,23.6,0,0,1-11.4,11.7c-3.7,1.6-8.3,2.1-10.6-1.8-1.9-3.2-1.8-7.4-1.5-10.9a31.6,31.6,0,0,1,1.1-6c.4-1.8,3.3-6.9,2.1-8.5-2.9-3.9-9.6,7.7-10.5,9.6-3.6,7.9-4.3,20.3,5.6,23.8,6.9,2.4,15.4.8,21.6-2.6,2.2-1.2,11.5-6.5,11-9.7l-2,1.8c6.7-7.4,8.7-15.7,4.6-25.1-2-4.4-5-7.7-8-11.4-2.3-3-3.2-6.1-5.1-9.3,2.6,3.9,5.6,7.6,8.3,11.4-5.6-9.6-15.7-20.7-11.4-32.8a28.6,28.6,0,0,1,10.9-13.4,21.84,21.84,0,0,1,9.4-3.7c4.1-.2,3.5,2.5,3.8,5.2,0-1.7.8-3.5-1.1-4.9-1.7-1.1-4.1-.4-5.9.2a28.59,28.59,0,0,0-10.9,6.4,29.51,29.51,0,0,1,7.4-5.3c2.4-1.2,5.9-2.7,8.6-2,6.5,2,.1,14.9-2.3,19.2.4-1,1.1-3,1.2-3.2-1.5.1-3.6,8.1-4.3,8.6-2.3,3,.9,3,2.9,1.4,2.2-1.7,3.9-4.2,5.5-6.3a57.68,57.68,0,0,0,5.7-9.1c1.1-2.1,3-5.6,1.4-7.8C184.85,18.13,184.05,16.23,182.05,14.93Zm-49.6,95.4c-6.5-6.3-5.1-16-.9-23.6C128,93.73,127.55,105.53,132.45,110.33Zm20-66.6a8.87,8.87,0,0,1,.2,1.5Z" transform="translate(2.89)"/>
      <path class="cls-4" d="M235.12,62.85c-.3-1.9-1.7-1.2-2.5-.2-.5.6-6.5,9.3-6.2,9.8a1.08,1.08,0,0,0,.7-.3c-1.8,2.3-4.8,4.7-7.1,6.8-2.3,2.3-4.6,6.2-8.1,6.8a3.42,3.42,0,0,1-1.1.1c-1.5,0-6.1-6.2-6.6-7.5.2,1.1,3.3,5.6,4.1,6.6-2.8-2.5-4.7-6.6-5.8-10.3.2.3.4.6.5.6.3-.1-.4-2.3-.4-2.4.2-.2,1.8-.9,2.2-1.2a73.1,73.1,0,0,0,6.5-4.3,49,49,0,0,0,11.1-9.7c3.3-4.3,5.9-10,.4-13.7s-11.9,2.9-15.2,6.8a73.38,73.38,0,0,0-8.4,12.2c-1.1,2.1-2.2,4.1-3.2,6.2-.6,1.2-2.7,4.2-2.3,5.5,0,0,1.8-2.8,1.8-2.9-.6,1.2-1.2,2.5-1.7,3.7,0-.1-1.4,2.5-1.6,3l-2.3,5.5c.5-5.3,1.3-10.6,2.2-15.9a14.27,14.27,0,0,1,2.4-6.6c1.3-2,2.6-4.1,3.8-6.1,2.7-4.5,5.1-9.3,7.5-14.1,1.8-3.5,2.9-8,5-11a40.36,40.36,0,0,0,5.5-13.8c.6-2.6,0-4.6-1.5-7-2.8-4.2-7.9-7.6-12.6-4.7-3.9,2.4-6.3,7-8,11a69,69,0,0,0-2.9,8l-1.7,4.9c-.2.9-.4,2.4-.6,3.2a.35.35,0,0,1-.1.2c-.6,2.3-1,4.4-1.5,6.7a14.6,14.6,0,0,1,.3-2.2c-.5.1-1.6,5.5-1.8,6.2-.7,2.7-1.2,5.4-1.7,8.3a113.83,113.83,0,0,0-2,15.4c-.2,5.6-1.1,11.3-1.6,16.8-.1,2.4-.6,4.9-.3,7.3a7.12,7.12,0,0,0,1.5,3.7,15.77,15.77,0,0,0,2.3,1.4.35.35,0,0,1-.1-.2,5.26,5.26,0,0,0,2.6.6c-.8.1-1.8.1-2-.2.9,1,3.7-.1,3.9-.2,2.4-.9,2.5-4.4,3.6-6.5l4.1-9.3a24.6,24.6,0,0,0,3.2,6.5c.3.5,4,4.5,4.2,4.2a.76.76,0,0,0-.2-.4,4.19,4.19,0,0,0,1.6,1.1c-.1.1-.5-.3-.6,0-.5,1.1,4.3,2.1,5.1,2,1.5-.3,2.7-1.5,4-2.3a14.43,14.43,0,0,0,3.2-2.3c1.2-1.2-.2-.4.6-1.2v.2c.3-.5,4.8-3.8,5-4,2.3-2.2,3.9-4.9,5.8-7.4a50.33,50.33,0,0,0,4.1-6.5c1.4-2,3.4-3.8,2.8-6.6ZM205,13c.9-1.7,3.6-5.8,5.8-3.5s-.3,9-1.2,11.6c-1.2,3.9-2.8,7.7-4.4,11.5l-2.3,5.1c-.9,1.8-2.1,3.5-2.5,5.2a22,22,0,0,1,1.5-2.6l1.9-4.1c1.5-3.2,2.8-6.3,4.1-9.5.7-1.5,1.4-3.3,2.1-5.1-.8,2.4-1.7,4.7-2.6,7.1a193.65,193.65,0,0,1-13.2,26.6c1.1-7.3,2.2-14.6,4-21.9C199.82,26.45,201.42,19.05,205,13Zm-3.9,57.2a142.34,142.34,0,0,1,9.7-15.8c.8-1.2,5.5-8.1,7.5-7s-3.4,8.9-4.1,10C210.72,62.25,206.42,67.25,201.12,70.15Zm-4.2-39c.9-3.3,1.7-6.7,2.8-10.2.1-.4,1-2,1.4-3-.4,1.5-1.7,4.1-1.8,4.7-1.2,4.7-1.9,9.4-2.9,14.1-1.1,5.6-2.1,11.1-2.9,16.7l.1-.9-.1.1c0-.1.1-.1.1-.2C194.22,45.45,195,38,196.92,31.15Zm-7.8.6-.1.1A.1.1,0,0,0,189.12,31.75Zm-.1.3v0Z" transform="translate(2.89)"/>
      <g>
        <path class="cls-4" d="M255.59,59.9c-.4-1.4-1.9-.8-2.5-.1-.9.8-5.4,8.6-4.9,9.1a.91.91,0,0,0,.7-.3,47,47,0,0,1-5.7,6.3c-1.1,1.1-3.7,4.2-5.5,3.6-4-1.5,1.9-15.4,1.5-15.5s-2.3,6.3-2.7,7.8a56.08,56.08,0,0,1,3.7-11.6c-.1.3-.3.9-.1.9s1.6-2.4,1.2-2.6a.4.4,0,0,0-.4.2c.3-.4.8-.5.7-1.2-.1-1.1-2.8-1.9-3.7-2.1-2.2-.6-4.3-.6-5.7.7-2,1.6-2.1,4.2-2.7,6.6-.1.7-1.2,8.6-.8,8.7.2-.1.2-.2.3-.5l-.1,2c-.1,0,0-.6-.2-.5-.9.1-.2,4,0,4.5.7,1.9,2.4,3.1,3.8,4.6a8.15,8.15,0,0,0,2.6,2.3c1.4.8.4-.1,1.4.3h-.2c0,.7,4.2,1.2,5.1,1,3.7-1.3,5.8-6.3,7.6-9.5,1.7-2.9,3.1-5.7,4.6-8.6C254.59,64.5,256.29,61.9,255.59,59.9Z" transform="translate(2.89)"/>
        <path class="cls-10" d="M236.09,74.7v.1l-.1.7.1-.9C236.19,74.4,236.19,74.4,236.09,74.7Z" transform="translate(2.89)"/>
      </g>
      <path class="cls-4" d="M292.65,56.07c-.9-2.5-2.2-.6-2.7.4a70.51,70.51,0,0,1-5.1,6c-2.2,2.6-4.4,5.2-6.8,7.6-1.2,1.2-2.6,3-4.2,3.7-.2.1-.9.3-.9.4l-.1-.1a9.91,9.91,0,0,1-.2-1.8,14.66,14.66,0,0,1,.5-4.2,21.59,21.59,0,0,0,.6-4l-.5.7c.5-1.4,1.2-2.8,1.8-4.3a15.12,15.12,0,0,0-3.1,6.2,24.59,24.59,0,0,0-1.3,4.9c-.1-2.5,1.2-5.8,1.8-7.3a67.66,67.66,0,0,1,2.8-7.5c2.1-4.2,7.3-8.5,4.9-13.7-2.2-4.9-6.2-4.5-9-1.2-1.4,1.6-12.2,19.7-11.8,19.8,0,0,.9-1.4,2.1-3.5l-5.3,10.2c-.1,0,.8-2,.7-2.1s-.8.8-.8,1.2c-.1-2.3.4-4.7.3-7a19.27,19.27,0,0,1-.1-2.4,27.09,27.09,0,0,1,1-4.3c.3-.9,1.1-1.8,1.2-2.7.3-1.5.1-2,.9-3.3s1.9-2.4,2.5-3.5c1.5-2.9-1.9-4.4-3.6-4.5a6.54,6.54,0,0,0-4.1.9c-1.3,1-.9,1.8-1.1,3-.1,1.6-1,3.4-1.4,4.9-.6,2.4-1.1,4.8-1.5,7.1a62.75,62.75,0,0,0-1.5,7,32.45,32.45,0,0,0,0,5.4c0,2-.1,3.3,1.1,4.9s4.6,4.2,6.3,1.5l.5.8c1.3-4.2,3.7-8.2,5.5-12.4.8-1.9,2.3-3.3,3.5-5.3,1.6-2.8,3-5.7,4.9-8.4a15.19,15.19,0,0,0-1.2,3.3c.2-.1.3-.4.5-.6l-1.1,3.2c-.1-.1.3-.9.1-.9-.8-.1-2.3,6.2-2.4,6.8a29,29,0,0,0-.2,7.2c0,1.2,0,2.4.1,3.6a8.94,8.94,0,0,0,1.1,3.5,7,7,0,0,0,1.6,1.9c.1,0,1.4.9.8.1l.7.6-.4-.2c0,.6,4.2,2.2,4.9,2.4,3.2.6,6-3.3,7.7-5.6,2.2-3.1,4-6.7,6-10C289.75,62.87,293.35,58.67,292.65,56.07Z" transform="translate(2.89)"/>
      <path class="cls-4" d="M329.57,51.49c-.9-2.5-2.2-.6-2.7.4a70.51,70.51,0,0,1-5.1,6c-2.2,2.5-4.4,5.1-6.8,7.5-1.2,1.2-2.6,3-4.2,3.7-.2.1-.9.3-.9.4l-.1-.1a9.91,9.91,0,0,1-.2-1.8,14.66,14.66,0,0,1,.5-4.2,21.59,21.59,0,0,0,.6-4l-.5.7c.5-1.4,1.2-2.8,1.8-4.3a15.12,15.12,0,0,0-3.1,6.2,24.59,24.59,0,0,0-1.3,4.9,23.64,23.64,0,0,1,1.8-7.3,67.66,67.66,0,0,1,2.8-7.5c2.1-4.2,7.3-8.5,4.9-13.7-2.2-4.9-6.2-4.5-9-1.2-1.3,1.6-12.1,19.7-11.8,19.9,0,0,.9-1.4,2.1-3.5l-5.2,10.2c-.1,0,.8-2,.7-2.1s-.8.8-.8,1.2c-.1-2.3.4-4.7.3-7a19.27,19.27,0,0,1-.1-2.4,27.09,27.09,0,0,1,1-4.3c.3-.9,1.1-1.8,1.2-2.7.3-1.5.1-2,.9-3.3s1.9-2.4,2.5-3.5c1.5-2.9-1.9-4.4-3.6-4.5a6.54,6.54,0,0,0-4.1.9c-1.3,1-.9,1.8-1.1,3-.1,1.6-1,3.4-1.4,4.9-.6,2.4-1.1,4.8-1.5,7.1a62.75,62.75,0,0,0-1.5,7,32.45,32.45,0,0,0,0,5.4c0,2-.1,3.3,1.1,4.9s4.6,4.2,6.3,1.5l.5.8c1.3-4.2,3.7-8.2,5.5-12.4.8-1.7,2.4-3.1,3.5-5.1,1.6-2.8,3-5.7,4.9-8.4a15.19,15.19,0,0,0-1.2,3.3c.2-.1.3-.4.5-.6l-1.2,3.2c-.1-.1.3-.9.1-.9-.8-.1-2.3,6.2-2.4,6.8a29,29,0,0,0-.2,7.2c0,1.2,0,2.4.1,3.6a8.94,8.94,0,0,0,1.1,3.5,7,7,0,0,0,1.6,1.9c.1,0,1.4.9.8.1l.7.6-.4-.2c0,.6,4.2,2.2,4.9,2.4,3.2.6,6-3.3,7.7-5.6,2.2-3.1,4-6.7,6-10C326.67,58.19,330.37,54,329.57,51.49Z" transform="translate(2.89)"/>
      <path class="cls-7" d="M49.71,27.67c-3.2,1.4-6.1,5.9-8.2,8.6-1.3,1.6-2.7,3.3-3.9,5.1-.8,1.2-3.1,3.7-3.1,5.2.1.1.1.1.2.1l-1.3,2.1a12.16,12.16,0,0,1,.8-1.7c-.5.3-1.1,2.3-1.1,2.3-2.5,4.3-5.5,8.3-7.8,12.8a119.43,119.43,0,0,0-6.4,15.4,132.45,132.45,0,0,1,3.2-15.2l-1.9,5.9.8-2.6a112.57,112.57,0,0,0-6.2,21.8A194.75,194.75,0,0,1,29,39.37c-.2.7-.5,1.6-.3,1.6.4.1,2.1-4.4,1.7-4.5l-.3.3a3.58,3.58,0,0,0-.1-3.6c-.9-1.7-2.9-4.5-5-3.2-1.3.7-2.2,3.5-2.6,4.6-.3.6-.3,1.5-.5,1.9-.4.7-1.1,1.1-1.6,2.1a48.3,48.3,0,0,0-2.5,7.6c-.4,1.4-4.7,15-4.5,15.1.2-.1.3-.4.4-.6-.2,1-.5,2-.8,3.1-.1-.1.2-.9,0-.9-1-.1-3.1,9.3-3.2,10.2a35.17,35.17,0,0,1-1.1,6.2,23.38,23.38,0,0,0-1.2,4c0,.1-.2,2.9.1,1.9a2.77,2.77,0,0,1-.1.9.4.4,0,0,0-.2-.4c-.1,0-.4,3.4-.5,3.8-.6,1.7-1.2,3.5-1.7,5.3-1.1,4.8-1.2,9.5-1.7,14.4-.3,3.7-2,9.7.1,13.1,1.9,3.2,7.1,2.3,9.2-.5,0,.2.2.3.3.4.1-8.3,2.2-16.9,4.5-24.9.8,1.1.5,1.7,1.2,3,.8,2.1,2.5,3.8,3.7,5.6.5.8,6.6,9.7,6.8,9.6s-.1-.4-.1-.5a13,13,0,0,0,1.5,2c-.1,0-.4-.5-.6-.4-.8.8,4.6,6.6,5.2,6.9,1.4,1.3,2.6,2.4,3.8,3.7a11.23,11.23,0,0,0,2.3,2.1c.1.1,1.5.9,1.3.5.1.1.3.2.5.4a.35.35,0,0,0-.2-.1c-.1.3,5.8,4.6,6.2,4.8a10.82,10.82,0,0,0,6.6.9c6.1-1.3,10.2-7.2,13.1-12.1a4.13,4.13,0,0,0,.8-3.3c-.6-2.9-1.5-1.4-2.3-.2-1.6,2.2-4.8,4.8-7.6,5.1a7.51,7.51,0,0,1-3.3-.4c-.5-.2-4.5-2-4.5-1.9a3,3,0,0,0,.5.7c-2-1.3-4.3-3.8-6.3-5.5l-8.6-7.6c-1.1-1-9.3-10-12.9-14.6l4.2,5.7c-2.3-2.8-4.5-5.7-6.6-8.8,5.5-.4,11.4-5.4,15.5-8.8,3.7-3.2,6.2-7.9,9.2-12.2,6-8.1,11.4-17.8,12-28.3-.7,14.4-7.8,26.5-17.2,36.9,3.4-1.3,6.3-5.8,8.4-8.5a69.06,69.06,0,0,0,6.3-9.6,46.23,46.23,0,0,0,4.8-12.5c.4-1.7,2.1-6.8,1.4-8.9,0,0-.2.8-.4,1.4a21.31,21.31,0,0,0-.3-5.6c.2.4.5,1,.4,1.2.2-.1-.1-1.5-.1-2.1,0,0-.2-.7-.1-.5C60.61,30.87,55.11,25.27,49.71,27.67Zm1.5,13.2c-.1.4-.1.3,0,.1.4,7.5-2.9,15.4-6.4,21.9a89.26,89.26,0,0,1-6.1,9.8,41.26,41.26,0,0,1-3.4,3.9c-.9,1.1-2.8,2.4-3.6,3.8.8-1,2.6-2.3,3.4-3.1,1.5-1.7,3.1-3.7,4.5-5.5a76.29,76.29,0,0,0,6.1-9.8c-5.4,10.7-13.4,20.5-23.8,26.4.8-.7,2.8-2,2.8-2.1-.2-.2-4.3,2.3-4.7,2.6,1.1-3,2.1-6,3.3-9,.4-.7,3-7.8,3-7.8-.2,0-.4.2-.5.5,3.8-8.3,9.1-16.8,14.1-24.6,1.6-2.4,10.6-17.7,11.3-7.3Zm-24.9,7.5c.2-.5.8-3.1.7-2.6l-2,6.5C25.41,51.07,25.91,49.77,26.31,48.37Zm-3.8,45.5c-.2.1.6,1.1,1.6,2.5A27.23,27.23,0,0,1,22.51,93.87Zm9.4,12.3s0-.1.1.1v.1Zm0,0c-.1,0-.1-.1-.2-.2C31.81,106.07,31.81,106.17,31.91,106.17Zm-6.9-32c0-.1.1-.1.1-.2A.35.35,0,0,1,25,74.17Z" transform="translate(2.89)"/>
      <path class="cls-7" d="M98.73,77.28c0,.1,0,.1-.1,0v-.1c-2.1-2.7-3.9,1.6-4.7,3.1-1.5,2.7-3,5.3-4.6,7.8a55.88,55.88,0,0,0-3.9,6.5c0,.2-.1.8-.1.8a24.26,24.26,0,0,1-1.4,2c-.9,1.1-1.7,2.3-2.7,3.4-1.4,1.7-9.5,11.4-11.3,6.1-1-2.6-.5-6.1-.3-8.8.1-1.4.3-2.8.3-4.2.1-1.1-.4-2.2,0-3.3.2-.7.4-.6,1.1-.9l1.8-.9a22.31,22.31,0,0,0,3.3-2,38.26,38.26,0,0,0,4.1-3.9c3-3.2,6.2-7,7-11.5a7.93,7.93,0,0,0-1.5-7c-1.6-1.7-4.2-2.3-6.4-2.5-6-.3-10,3.6-12.8,8.4a47.38,47.38,0,0,0-6.3,19.1c-.4,3.2-.4,6.4-.5,9.8s-.1,6.4,2,9.2c-.2-1.1-.6-2-.7-3-.1-.5.1-1.1,0-1.5,0-.2-.3-.8-.4-1.2a13.13,13.13,0,0,1,.1-2.8,25.82,25.82,0,0,0-.3-2.9,10,10,0,0,1,.6-3c.2-.9.2-1.7.4-2.6s.3-1.7.6-2.6a9.61,9.61,0,0,1,.7-2c-.2,1-.7,2-.9,2.9a18,18,0,0,0,.3,4c0,1.4-.3,2.9-.3,4.4s-.5,2.8-.6,4.3a11,11,0,0,0-.1,3.6,10.81,10.81,0,0,0,.5,2.1c.2.9.8,1.3,1.5,1.9a14.78,14.78,0,0,0,7.7,3.8,7.29,7.29,0,0,0,5.5-1.2,28.93,28.93,0,0,0,6.1-6.5c1.6-2.3,2.7-4.7,4.1-7.1,1.3-2.1,2.9-4.2,4.2-6.4l4.9-8.3,2.9-4.9A1.66,1.66,0,0,0,98.73,77.28ZM72,81.88v-.4c1.2-3.6,2-7.5,3.8-11.1l1.6-2.8c.4-.6,1-1.7,1.7-2,1.6-.5,2.4,2.2,2.4,3.3l-.1,2.3c0,.7.2,1.1.2,1.6-.1.7-.6,1.1-.9,1.7l-1.5,2.6a32.71,32.71,0,0,1-8.2,8.4C71.43,84.28,71.63,83,72,81.88Z" transform="translate(2.89)"/>
      <path class="cls-7" d="M179.67,13.05a18,18,0,0,0-5.7-2.3c-5.1-1.4-9.9-1.7-14.9.2a31.69,31.69,0,0,0-12.6,9.1c-2.3,2.7-6.3,7.3-6.4,11.2l.6-1.2a26.81,26.81,0,0,0-1.5,6.4,5.46,5.46,0,0,1,.1-1.8c-1.7.2-.4,6.8-.1,7.7a39.19,39.19,0,0,0,4.8,12.7c3,5.4,6.3,10.6,9.1,16l2.6,4.6a12.68,12.68,0,0,0,1.2,2.3,3.19,3.19,0,0,1,.6.7,11.26,11.26,0,0,0,.8,2.2,7,7,0,0,1-.9-1.7c-.1.8.7,1.7.9,2.2a11.56,11.56,0,0,1,.7,3.1,19.07,19.07,0,0,1-1.6,8.2,22.28,22.28,0,0,1-11.3,11.7c-3.7,1.6-8.3,2.1-10.6-1.8-1.9-3.2-1.8-7.4-1.5-10.9a31.6,31.6,0,0,1,1.1-6c.4-1.8,3.3-6.9,2.1-8.5-2.9-3.9-9.6,7.7-10.5,9.6-3.6,7.9-4.3,20.3,5.6,23.8,6.9,2.4,15.4.8,21.6-2.6,2.2-1.2,11.5-6.5,11-9.7l-2,1.8c6.7-7.4,8.7-15.7,4.6-25.1-2-4.4-5-7.7-8-11.4-2.3-3-3.2-6.1-5.1-9.3,2.6,3.9,5.6,7.6,8.3,11.4-5.7-9.6-15.8-20.7-11.5-32.8a28.6,28.6,0,0,1,10.9-13.4,21.84,21.84,0,0,1,9.4-3.7c4.1-.2,3.5,2.5,3.8,5.2,0-1.7.8-3.5-1.1-4.9-1.7-1.1-4.1-.4-5.9.2a28.59,28.59,0,0,0-10.9,6.4,29.51,29.51,0,0,1,7.4-5.3c2.4-1.2,5.9-2.7,8.6-2,6.5,2,.1,14.9-2.3,19.2.4-1,1.1-3,1.2-3.2-1.5.1-3.6,8.1-4.3,8.6-2.3,3,.9,3,2.9,1.4,2.2-1.7,3.9-4.2,5.5-6.3a57.68,57.68,0,0,0,5.7-9.1c1.1-2.1,3-5.6,1.4-7.8C182.47,16.25,181.67,14.35,179.67,13.05Zm-49.6,95.4c-6.5-6.3-5.1-16-.9-23.6C125.57,91.85,125.17,103.75,130.07,108.45Zm20-66.6a8.87,8.87,0,0,1,.2,1.5Z" transform="translate(2.89)"/>
      <path class="cls-7" d="M232.74,61.06c-.3-1.9-1.7-1.2-2.6-.2-.5.6-6.5,9.3-6.2,9.8a1.08,1.08,0,0,0,.7-.3c-1.8,2.3-4.8,4.7-7.1,6.8-2.3,2.3-4.6,6.2-8.1,6.8a3.42,3.42,0,0,1-1.1.1c-1.5,0-6.1-6.2-6.6-7.5.2,1.1,3.3,5.6,4.1,6.6-2.8-2.5-4.7-6.6-5.8-10.3.2.3.4.6.5.6.3-.1-.4-2.3-.4-2.4a18.89,18.89,0,0,0,2.5-1.1,73.1,73.1,0,0,0,6.5-4.3,56.25,56.25,0,0,0,10.9-9.8c3.3-4.3,5.9-10,.4-13.7s-11.9,2.9-15.2,6.8a73.38,73.38,0,0,0-8.4,12.2c-1.1,2.1-2.2,4.1-3.2,6.2-.6,1.2-2.7,4.2-2.3,5.5,0,0,1.8-2.8,1.8-2.9-.6,1.2-1.2,2.5-1.7,3.7,0-.1-1.4,2.5-1.6,3l-2.3,5.5c.6-5.2,1.3-10.5,2.2-15.8a14.27,14.27,0,0,1,2.4-6.6c1.3-2,2.6-4.1,3.8-6.1,2.7-4.5,5.1-9.3,7.5-14.1,1.8-3.5,2.9-8,5-11a40.36,40.36,0,0,0,5.5-13.8c.6-2.6,0-4.6-1.5-7-2.8-4.2-7.9-7.6-12.6-4.7-3.9,2.4-6.3,7-8,11a69,69,0,0,0-2.9,8l-1.6,4.8c-.2.9-.4,2.4-.6,3.2a.35.35,0,0,1-.1.2c-.6,2.3-1,4.4-1.5,6.7a14.6,14.6,0,0,1,.3-2.2c-.5.1-1.6,5.5-1.8,6.2-.7,2.7-1.2,5.4-1.7,8.3a113.83,113.83,0,0,0-2,15.4c-.2,5.6-1.1,11.3-1.6,16.8-.1,2.4-.6,4.9-.3,7.3a7.12,7.12,0,0,0,1.5,3.7,15.77,15.77,0,0,0,2.3,1.4.35.35,0,0,1-.1-.2,5.26,5.26,0,0,0,2.6.6c-.8.1-1.8.1-2-.2.9,1,3.7-.1,3.9-.2,2.4-.9,2.5-4.4,3.6-6.5l4.1-9.3a24.6,24.6,0,0,0,3.2,6.5c.3.5,4,4.5,4.2,4.2a.76.76,0,0,0-.2-.4,4.19,4.19,0,0,0,1.6,1.1c-.1.1-.5-.3-.6,0-.5,1.1,4.3,2.1,5.1,2,1.5-.3,2.7-1.5,4-2.3a14.43,14.43,0,0,0,3.2-2.3c1.2-1.2-.2-.4.6-1.2v.2c.3-.5,4.8-3.8,5-4,2.3-2.2,3.9-4.9,5.8-7.4a50.33,50.33,0,0,0,4.1-6.5c1.4-2,3.4-3.8,2.8-6.6Zm-30.1-50c.9-1.7,3.6-5.8,5.8-3.5s-.3,9-1.2,11.6c-1.2,3.9-2.8,7.7-4.4,11.5l-2.3,5.1c-.9,1.8-2.1,3.5-2.5,5.2a22,22,0,0,1,1.5-2.6l1.9-4.1c1.5-3.2,2.8-6.3,4.1-9.5.7-1.5,1.4-3.3,2.1-5.1-.8,2.4-1.7,4.7-2.6,7.1a193.65,193.65,0,0,1-13.2,26.6c1.1-7.3,2.2-14.6,4-21.9C197.44,24.56,199.14,17.26,202.64,11.06Zm-3.9,57.2a142.34,142.34,0,0,1,9.7-15.8c.8-1.2,5.5-8.1,7.5-7s-3.4,8.9-4.1,10C208.34,60.36,204,65.36,198.74,68.26Zm-4.2-39c.9-3.3,1.7-6.7,2.8-10.2.1-.4,1-2,1.4-3-.4,1.5-1.7,4.1-1.8,4.7-1.2,4.7-1.9,9.4-2.9,14.1-1.1,5.6-2.1,11.1-2.9,16.7l.1-.9-.1.1c0-.1.1-.1.1-.2C191.84,43.56,192.64,36.06,194.54,29.26Zm-7.8.7-.1.1A.1.1,0,0,0,186.74,30Zm-.1.2v0Z" transform="translate(2.89)"/>
      <g>
        <path class="cls-7" d="M253.21,58c-.4-1.4-1.9-.8-2.5-.1-1,.8-5.5,8.6-5,9.1a.91.91,0,0,0,.7-.3,47,47,0,0,1-5.7,6.3c-1.1,1.1-3.7,4.2-5.5,3.6-3.9-1.4,1.9-15.3,1.6-15.4s-2.3,6.3-2.7,7.8a56.08,56.08,0,0,1,3.7-11.6c-.1.3-.3.9-.1.9s1.6-2.4,1.2-2.6a.4.4,0,0,0-.4.2c.3-.4.8-.5.7-1.2,0-1.1-2.6-1.9-3.5-2.1-2.2-.6-4.3-.6-5.7.7-2,1.6-2.1,4.2-2.7,6.6-.2.7-1.3,8.7-.9,8.7.2-.1.2-.2.3-.5l-.1,2c-.1,0,0-.6-.2-.5-.9.1-.2,4,0,4.5.7,1.9,2.4,3.1,3.8,4.6a8.15,8.15,0,0,0,2.6,2.3c1.4.8.4-.1,1.4.3H234c0,.7,4.2,1.2,5.1,1,3.7-1.3,5.8-6.3,7.6-9.5,1.7-2.9,3.1-5.7,4.6-8.6C252.21,62.71,253.91,60,253.21,58Z" transform="translate(2.89)"/>
        <path class="cls-10" d="M233.71,72.81v.1l-.1.7.1-.9C233.81,72.61,233.81,72.61,233.71,72.81Z" transform="translate(2.89)"/>
      </g>
      <path class="cls-7" d="M290.27,54.29c-.9-2.6-2.2-.6-2.7.4a70.51,70.51,0,0,1-5.1,6c-2.2,2.5-4.4,5.1-6.8,7.5-1.2,1.2-2.6,3-4.2,3.7-.2.1-.9.3-.9.4l-.1-.1a9.91,9.91,0,0,1-.2-1.8,14.66,14.66,0,0,1,.5-4.2,21.59,21.59,0,0,0,.6-4l-.5.7c.5-1.4,1.2-2.8,1.8-4.3a15.12,15.12,0,0,0-3.1,6.2,24.59,24.59,0,0,0-1.3,4.9c-.1-2.4,1.2-5.8,1.7-7.3a67.66,67.66,0,0,1,2.8-7.5c2.1-4.2,7.3-8.5,4.9-13.7-2.2-4.9-6.2-4.5-9-1.2-1.2,1.6-12.1,19.7-11.7,19.9,0,0,.9-1.4,2.1-3.5l-5.2,10.2c-.1,0,.8-2,.7-2.1s-.8.8-.8,1.2c-.1-2.3.3-4.7.3-7a19.27,19.27,0,0,1-.1-2.4,27.09,27.09,0,0,1,1-4.3c.3-.9,1.1-1.8,1.2-2.7.3-1.5.1-2,.9-3.3s1.9-2.4,2.5-3.5c1.5-2.9-1.9-4.4-3.6-4.5a6.54,6.54,0,0,0-4.1.9c-1.3,1-.9,1.8-1.1,3-.1,1.6-1,3.4-1.4,4.9-.6,2.4-1.1,4.8-1.5,7.1a62.75,62.75,0,0,0-1.5,7,32.45,32.45,0,0,0,0,5.4c0,2-.1,3.3,1.1,4.9s4.6,4.2,6.3,1.5l.5.8c1.3-4.2,3.7-8.2,5.5-12.4.8-1.9,2.3-3.3,3.5-5.3,1.6-2.8,3-5.7,4.9-8.4a15.19,15.19,0,0,0-1.2,3.3c.2-.1.3-.4.5-.6l-1.1,3.2c-.1-.1.3-.9.1-.9-.8-.1-2.3,6.2-2.4,6.8a29,29,0,0,0-.2,7.2c0,1.2,0,2.4.1,3.6a8.94,8.94,0,0,0,1.1,3.5,7,7,0,0,0,1.6,1.9c.1,0,1.4.9.8.1l.7.6-.4-.2c0,.6,4.2,2.2,4.9,2.4,3.2.6,6-3.3,7.7-5.6,2.2-3.1,4-6.7,6-10C287.37,61,291.07,56.79,290.27,54.29Z" transform="translate(2.89)"/>
      <path class="cls-7" d="M327.19,49.61c-.9-2.5-2.2-.6-2.7.4a70.51,70.51,0,0,1-5.1,6c-2.2,2.5-4.4,5.1-6.8,7.5-1.2,1.2-2.6,3-4.2,3.7-.2.1-.9.3-.9.4l-.1-.1a9.91,9.91,0,0,1-.2-1.8,14.66,14.66,0,0,1,.5-4.2,21.59,21.59,0,0,0,.6-4l-.5.7c.5-1.4,1.2-2.8,1.8-4.3a15.12,15.12,0,0,0-3.1,6.2,24.59,24.59,0,0,0-1.3,4.9c-.1-2.4,1.2-5.8,1.7-7.3.9-2.3,1.8-5.1,2.9-7.4,2.1-4.2,7.3-8.5,4.9-13.7-2.2-4.9-6.2-4.5-9-1.2-1.3,1.6-12.1,19.6-11.8,19.8,0,0,.9-1.4,2.1-3.5l-5.2,10.2c-.1,0,.8-2,.7-2.1s-.8.8-.8,1.2c-.1-2.3.4-4.7.3-7a19.27,19.27,0,0,1-.1-2.4,27.09,27.09,0,0,1,1-4.3c.3-.9,1.1-1.8,1.2-2.7.3-1.5.1-2,.9-3.3s1.9-2.4,2.5-3.5c1.5-2.9-1.9-4.4-3.6-4.5a6.54,6.54,0,0,0-4.1.9c-1.3,1-.9,1.8-1.1,3-.1,1.6-1,3.4-1.4,4.9-.6,2.4-1.1,4.8-1.5,7.1a62.75,62.75,0,0,0-1.5,7,32.45,32.45,0,0,0,0,5.4c0,2-.1,3.3,1.1,4.9s4.6,4.2,6.3,1.5l.5.8c1.3-4.2,3.7-8.2,5.5-12.4.8-1.9,2.3-3.3,3.5-5.3,1.6-2.8,3-5.7,4.9-8.4-.2.8-1.3,3.5-1.2,3.6.2-.1.3-.4.5-.6l-1.1,3.2c-.1-.1.3-.9.1-.9-.8-.1-2.3,6.2-2.4,6.8a29,29,0,0,0-.2,7.2c0,1.2,0,2.4.1,3.6a8.94,8.94,0,0,0,1.1,3.5,7,7,0,0,0,1.6,1.9c.1,0,1.4.9.8.1l.7.6-.4-.2c0,.6,4.2,2.2,4.9,2.4,3.2.6,6-3.3,7.7-5.6,2.2-3.1,4-6.7,6-10C324.29,56.41,328,52.21,327.19,49.61Z" transform="translate(2.89)"/>
      <path class="cls-11" d="M47.33,25.79c-3.2,1.4-6.1,5.9-8.2,8.6-1.3,1.6-2.7,3.3-3.9,5.1-.8,1.2-3.1,3.7-3.1,5.2.1.1.1.1.2.1L31,46.89a12.16,12.16,0,0,1,.8-1.7c-.5.3-1.1,2.3-1.1,2.3-2.5,4.3-5.5,8.3-7.8,12.8a148.69,148.69,0,0,0-6.4,15.5,132.45,132.45,0,0,1,3.2-15.2l-1.9,5.9.8-2.6a108.7,108.7,0,0,0-6.2,21.8,191.2,191.2,0,0,1,14.2-48.2c-.2.7-.5,1.6-.3,1.6.4.1,2.1-4.4,1.7-4.5l-.3.3a3.58,3.58,0,0,0-.1-3.6c-.9-1.7-2.9-4.5-5-3.2-1.3.7-2.2,3.5-2.6,4.6-.3.6-.3,1.5-.5,1.9-.4.7-1.1,1.1-1.6,2.1a48.3,48.3,0,0,0-2.5,7.6c-.4,1.4-4.7,15-4.5,15.1.2-.1.3-.4.4-.6-.2,1-.5,2-.8,3.1-.1-.1.2-.9,0-.9-1-.1-3.1,9.3-3.2,10.2a35.17,35.17,0,0,1-1.1,6.2,30.59,30.59,0,0,0-1,4.1c0,.1-.2,2.9.1,1.9a2.77,2.77,0,0,1-.1.9.4.4,0,0,0-.2-.4c-.3,0-.6,3.3-.7,3.8-.6,1.7-1.2,3.5-1.7,5.3-1,4.7-1.2,9.5-1.7,14.4-.3,3.7-2,9.7.1,13.1,1.9,3.2,7.1,2.3,9.2-.5,0,.2.2.3.3.4.1-8.3,2.2-16.9,4.5-24.9.8,1.1.5,1.7,1.2,3,.8,2.1,2.5,3.8,3.7,5.6.5.8,6.6,9.7,6.8,9.6s-.1-.4-.1-.5a13,13,0,0,0,1.5,2c-.1,0-.4-.5-.6-.4-.8.8,4.6,6.6,5.2,6.9,1.4,1.3,2.6,2.4,3.8,3.7a11.23,11.23,0,0,0,2.3,2.1c.1.1,1.5.9,1.3.5.1.1.3.2.5.4a.35.35,0,0,0-.2-.1c-.1.3,5.8,4.6,6.2,4.8a10.82,10.82,0,0,0,6.6.9c6.1-1.3,10.2-7.2,13.1-12.1a4.13,4.13,0,0,0,.8-3.3c-.6-2.9-1.5-1.4-2.3-.2-1.6,2.2-4.8,4.8-7.6,5.1a7.51,7.51,0,0,1-3.3-.4c-.5-.2-4.5-2-4.5-1.9a3,3,0,0,0,.5.7c-2-1.3-4.3-3.8-6.3-5.5l-8.6-7.6c-1.1-1-9.3-10-12.9-14.6l4.2,5.7c-2.3-2.8-4.5-5.7-6.6-8.8,5.5-.4,11.4-5.4,15.5-8.8,3.7-3.2,6.2-7.9,9.2-12.2,6-8.1,11.4-17.8,12-28.3-.7,14.4-7.8,26.5-17.2,36.9,3.4-1.3,6.3-5.8,8.4-8.5a69.06,69.06,0,0,0,6.3-9.6,46.23,46.23,0,0,0,4.8-12.5c.4-1.7,2.1-6.8,1.4-8.9,0,0-.2.8-.4,1.4a21.31,21.31,0,0,0-.3-5.6c.2.4.5,1,.4,1.2.2-.1-.1-1.5-.1-2.1,0,0-.2-.7-.1-.5C58.23,29,52.73,23.49,47.33,25.79ZM48.83,39c-.1.4-.1.3,0,.1.4,7.5-2.9,15.4-6.4,21.9a89.26,89.26,0,0,1-6.1,9.8,41.26,41.26,0,0,1-3.4,3.9c-.9,1.1-2.8,2.4-3.6,3.8.8-1,2.6-2.3,3.4-3.1,1.5-1.7,3.1-3.7,4.5-5.5a76.29,76.29,0,0,0,6.1-9.8c-5.4,10.8-13.4,20.5-23.8,26.4.8-.6,2.9-2,2.9-2.1-.2-.2-4.3,2.3-4.7,2.6,1.1-3,2.1-6,3.3-9,.4-.7,3-7.8,3-7.8-.2,0-.4.2-.5.5,3.8-8.3,9.1-16.8,14.1-24.6,1.6-2.4,10.6-17.7,11.3-7.3Zm-24.9,7.6c.2-.5.8-3.1.7-2.6l-2,6.5C23,49.19,23.53,47.89,23.93,46.59Zm-3.8,45.5c-.2.1.6,1.1,1.6,2.5A27.23,27.23,0,0,1,20.13,92.09Zm9.4,12.2s0-.1.1.1v.1Zm0,0c-.1,0-.1-.1-.2-.2C29.43,104.19,29.43,104.29,29.53,104.29Zm-6.9-31.9c0-.1.1-.1.1-.2Z" transform="translate(2.89)"/>
      <path class="cls-11" d="M96.35,75.49c0,.1,0,.1-.1,0v-.1c-2.1-2.7-3.9,1.6-4.7,3.1-1.5,2.7-3,5.3-4.6,7.8a55.88,55.88,0,0,0-3.9,6.5c0,.2-.1.8-.1.8a24.26,24.26,0,0,1-1.4,2c-.9,1.1-1.7,2.3-2.7,3.4-1.4,1.7-9.5,11.4-11.3,6.1-1-2.6-.5-6.1-.3-8.8.1-1.4.3-2.8.3-4.2.1-1.1-.4-2.2,0-3.3.2-.7.4-.6,1.1-.9l1.8-.9a22.31,22.31,0,0,0,3.3-2,38.26,38.26,0,0,0,4.1-3.9c3-3.2,6.2-7,7-11.5a7.93,7.93,0,0,0-1.5-7c-1.6-1.7-4.2-2.3-6.4-2.5-6-.3-10,3.6-12.8,8.4a45.32,45.32,0,0,0-6.2,19c-.4,3.2-.4,6.4-.5,9.8s-.1,6.4,2,9.2c-.2-1.1-.3-.9-.1-.3.2.9.8,1.3,1.5,1.9a14.78,14.78,0,0,0,7.7,3.8,7.29,7.29,0,0,0,5.5-1.2,28.93,28.93,0,0,0,6.1-6.5c1.6-2.3,2.7-4.7,4.1-7.1,1.3-2.1,2.9-4.2,4.2-6.4l4.9-8.3,2.8-4.9A1.53,1.53,0,0,0,96.35,75.49ZM69.65,80a.77.77,0,0,0,.1-.3c1.2-3.7,1.9-7.5,3.8-11.2l1.6-2.8c.4-.6,1-1.7,1.7-2,1.6-.5,2.4,2.2,2.4,3.3l-.1,2.3c-.1.7.2,1.1.1,1.7s-.6,1.1-.9,1.7l-1.5,2.6a32.71,32.71,0,0,1-8.2,8.4C69.05,82.39,69.25,81.19,69.65,80Z" transform="translate(2.89)"/>
      <path class="cls-11" d="M177.29,11.27a18,18,0,0,0-5.7-2.3c-5.1-1.4-9.9-1.7-14.9.2a31.69,31.69,0,0,0-12.6,9.1c-2.3,2.7-6.3,7.3-6.4,11.2l.6-1.2a26.81,26.81,0,0,0-1.5,6.4,5.46,5.46,0,0,1,.1-1.8c-1.7.2-.4,6.8-.1,7.7a39.19,39.19,0,0,0,4.8,12.7c3.1,5.3,6.4,10.5,9.3,15.9l2.4,4.6a12.68,12.68,0,0,0,1.2,2.3,3.19,3.19,0,0,1,.6.7,11.26,11.26,0,0,0,.8,2.2,7,7,0,0,1-.9-1.7c-.1.8.7,1.7.9,2.2a11.56,11.56,0,0,1,.7,3.1,19.07,19.07,0,0,1-1.6,8.2,23.6,23.6,0,0,1-11.4,11.7c-3.7,1.6-8.3,2.1-10.6-1.8-1.9-3.2-1.8-7.4-1.5-10.9a31.6,31.6,0,0,1,1.1-6c.4-1.8,3.3-6.9,2.1-8.5-2.7-3.8-9.4,7.8-10.3,9.7-3.6,7.9-4.3,20.3,5.6,23.8,6.9,2.4,15.4.8,21.6-2.6,2.2-1.2,11.5-6.5,11-9.7l-2,1.8c6.7-7.4,8.7-15.7,4.6-25.1-2-4.4-5-7.7-8-11.4-2.3-3-3.2-6.1-5.1-9.3,2.5,3.8,5.5,7.5,8.2,11.3-5.7-9.6-15.8-20.7-11.5-32.8a28.6,28.6,0,0,1,10.9-13.4,21.84,21.84,0,0,1,9.4-3.7c4.1-.2,3.5,2.5,3.8,5.2,0-1.7.8-3.5-1.1-4.9-1.7-1.1-4.1-.4-5.9.2a28.59,28.59,0,0,0-10.9,6.4,29.51,29.51,0,0,1,7.4-5.3c2.4-1.2,5.9-2.7,8.6-2,6.5,2,.1,14.9-2.3,19.2.4-1,1.1-3,1.2-3.2-1.5.1-3.6,8.1-4.3,8.6-2.3,3,.9,3,2.9,1.4,2.2-1.7,3.9-4.2,5.5-6.3a57.68,57.68,0,0,0,5.7-9.1c1.1-2.1,3-5.6,1.4-7.8C180.09,14.37,179.29,12.57,177.29,11.27Zm-49.6,95.4c-6.5-6.3-5.1-16-.9-23.6C123.19,90.07,122.79,101.87,127.69,106.67Zm20-66.6a8.87,8.87,0,0,1,.2,1.5Z" transform="translate(2.89)"/>
      <path class="cls-11" d="M230.36,59.18c-.3-1.9-1.7-1.2-2.6-.2-.5.6-6.5,9.3-6.2,9.8a1.08,1.08,0,0,0,.7-.3c-1.8,2.3-4.8,4.7-7.1,6.8-2.3,2.3-4.6,6.2-8.1,6.8a3.42,3.42,0,0,1-1.1.1c-1.5,0-6.1-6.2-6.6-7.5.2,1.1,3.3,5.6,4.1,6.6-2.8-2.5-4.7-6.6-5.8-10.3.2.3.4.6.5.6.3-.1-.4-2.3-.4-2.4.2-.2,1.8-.9,2.2-1.2a73.1,73.1,0,0,0,6.5-4.3,56.25,56.25,0,0,0,10.9-9.8c3.3-4.3,5.9-10,.4-13.7s-11.9,2.9-15.2,6.8a92.86,92.86,0,0,0-8.2,12.2c-1.1,2.1-2.2,4.1-3.2,6.2-.6,1.2-2.7,4.2-2.3,5.5,0,0,1.8-2.8,1.8-2.9-.6,1.2-1.2,2.5-1.7,3.7,0-.1-1.4,2.5-1.6,3l-2.3,5.5c.6-5.2,1.3-10.5,2.2-15.8a14.27,14.27,0,0,1,2.4-6.6c1.3-2,2.6-4.1,3.7-6.1,2.7-4.5,5.1-9.3,7.5-14.1,1.8-3.5,2.9-8,5-11a40.36,40.36,0,0,0,5.5-13.8c.6-2.6,0-4.6-1.5-7-2.8-4.2-7.9-7.6-12.6-4.7-3.9,2.4-6.3,7-8,11a69,69,0,0,0-2.9,8l-1.4,4.8c-.2.9-.4,2.4-.6,3.2a.35.35,0,0,1-.1.2c-.6,2.3-1,4.4-1.5,6.7a14.6,14.6,0,0,1,.3-2.2c-.5.1-1.6,5.5-1.8,6.2-.7,2.7-1.2,5.4-1.7,8.3a113.83,113.83,0,0,0-2,15.4c-.2,5.6-1.1,11.2-1.7,16.8-.1,2.4-.6,4.9-.3,7.3a7.12,7.12,0,0,0,1.5,3.7,15.77,15.77,0,0,0,2.3,1.4.35.35,0,0,1-.1-.2,5.26,5.26,0,0,0,2.6.6c-.8.1-1.8.1-2-.2.9,1,3.7-.1,3.9-.2,2.4-.9,2.5-4.4,3.6-6.5l4.1-9.3a24.6,24.6,0,0,0,3.2,6.5c.3.5,4,4.5,4.2,4.2a.76.76,0,0,0-.2-.4,4.19,4.19,0,0,0,1.6,1.1c-.1.1-.5-.3-.6,0-.5,1.1,4.3,2.1,5.1,2,1.5-.3,2.7-1.5,4-2.3a14.43,14.43,0,0,0,3.2-2.3c1.2-1.2-.2-.4.6-1.2v.2c.3-.5,4.8-3.8,5-4,2.3-2.2,3.9-4.9,5.8-7.4a50.33,50.33,0,0,0,4.1-6.5c1.4-2,3.4-3.8,2.8-6.6Zm-30.1-49.9c.9-1.7,3.6-5.8,5.8-3.5s-.3,9-1.2,11.6c-1.2,3.9-2.8,7.7-4.4,11.5l-2.3,5.1c-.9,1.8-2.1,3.5-2.5,5.2a22,22,0,0,1,1.5-2.6l1.9-4.1c1.5-3.2,2.8-6.3,4.1-9.5.7-1.5,1.4-3.3,2.1-5.1-.8,2.4-1.7,4.7-2.6,7.1a193.65,193.65,0,0,1-13.2,26.6c1.1-7.3,2.2-14.6,4-21.9C195.06,22.78,196.76,15.38,200.26,9.28Zm-3.9,57.1a142.34,142.34,0,0,1,9.7-15.8c.8-1.2,5.5-8.1,7.5-7s-3.4,8.9-4.1,10C206,58.48,201.66,63.58,196.36,66.38Zm-4.2-39c.9-3.3,1.7-6.7,2.8-10.2.1-.4,1-2,1.4-3-.4,1.5-1.7,4.1-1.8,4.7-1.2,4.7-1.9,9.4-2.9,14.1-1.1,5.6-2.1,11.1-2.9,16.7l.1-.9V49c0-.1.1-.1.1-.2A111.79,111.79,0,0,1,192.16,27.38Zm-7.8.7-.1.1A.1.1,0,0,0,184.36,28.08Zm-.1.2v0Z" transform="translate(2.89)"/>
      <g>
        <path class="cls-11" d="M250.83,56.23c-.4-1.4-1.9-.8-2.5-.1-.9.8-5.4,8.6-4.9,9.1a.91.91,0,0,0,.7-.3,47,47,0,0,1-5.7,6.3c-1.1,1.1-3.7,4.2-5.5,3.6-4-1.5,1.9-15.4,1.6-15.5s-2.3,6.3-2.7,7.8a56.08,56.08,0,0,1,3.7-11.6c-.1.3-.3.9-.1.9s1.6-2.4,1.2-2.6a.4.4,0,0,0-.4.2c.3-.4.8-.5.7-1.2-.1-1.1-2.8-1.9-3.7-2.1-2.2-.6-4.3-.6-5.7.7-2,1.6-2.1,4.2-2.7,6.6-.1.7-1.2,8.6-.8,8.7.2-.1.2-.2.3-.5l-.1,2c-.1,0,0-.6-.2-.5-.9.1-.2,4,0,4.5.7,1.9,2.4,3.1,3.8,4.6a8.15,8.15,0,0,0,2.6,2.3c1.4.8.4-.1,1.4.3h-.2c0,.7,4.2,1.2,5.1,1,3.7-1.3,5.8-6.3,7.6-9.5,1.7-2.9,3.1-5.7,4.6-8.6C249.83,60.83,251.53,58.23,250.83,56.23Z" transform="translate(2.89)"/>
        <path class="cls-11" d="M231.33,70.93V71l-.1.7.1-.9C231.43,70.73,231.43,70.73,231.33,70.93Z" transform="translate(2.89)"/>
      </g>
      <path class="cls-11" d="M287.89,52.4c-.9-2.5-2.2-.6-2.7.4a70.51,70.51,0,0,1-5.1,6c-2.2,2.5-4.4,5.1-6.8,7.5-1.2,1.2-2.6,3-4.2,3.7-.2.1-.9.3-.9.4l-.1-.1a9.91,9.91,0,0,1-.2-1.8,14.66,14.66,0,0,1,.5-4.2,21.59,21.59,0,0,0,.6-4l-.5.7c.5-1.4,1.2-2.8,1.8-4.3a15.12,15.12,0,0,0-3.1,6.2,24.59,24.59,0,0,0-1.3,4.9c-.1-2.4,1.2-5.8,1.7-7.3a67.66,67.66,0,0,1,2.8-7.5c2.1-4.2,7.3-8.5,4.9-13.7-2.2-4.9-6.2-4.5-9-1.2-1.2,1.7-12.1,19.7-11.7,19.9,0,0,.9-1.4,2.1-3.5l-5.2,10.2c-.1,0,.8-2,.7-2.1s-.8.8-.8,1.2c-.1-2.3.4-4.7.3-7a19.27,19.27,0,0,1-.1-2.4,27.09,27.09,0,0,1,1-4.3c.3-.9,1.1-1.8,1.2-2.7.3-1.5.1-2,.9-3.3s1.9-2.4,2.5-3.5c1.5-2.9-1.9-4.4-3.6-4.5a6.54,6.54,0,0,0-4.1.9c-1.3,1-.9,1.8-1.1,3-.1,1.6-1,3.4-1.4,4.9-.6,2.4-1.1,4.8-1.5,7.1a62.75,62.75,0,0,0-1.5,7,32.45,32.45,0,0,0,0,5.4c0,2-.1,3.3,1.1,4.9s4.6,4.2,6.3,1.5l.5.8c1.3-4.2,3.7-8.2,5.5-12.4.8-1.9,2.3-3.3,3.5-5.3,1.6-2.8,3-5.7,4.9-8.4a15.19,15.19,0,0,0-1.2,3.3c.2-.1.3-.4.5-.6L264,51.4c-.1-.1.3-.9.1-.9-.8-.1-2.3,6.2-2.4,6.8a29,29,0,0,0-.2,7.2c0,1.2,0,2.4.1,3.6a8.94,8.94,0,0,0,1.1,3.5,7,7,0,0,0,1.6,1.9c.1,0,1.4.9.8.1l.7.6-.5.1c0,.6,4.2,2.2,4.9,2.4,3.2.6,6-3.3,7.7-5.6,2.2-3.1,4-6.7,6-10C285,59.2,288.69,55,287.89,52.4Z" transform="translate(2.89)"/>
      <path class="cls-11" d="M324.81,47.83c-.9-2.5-2.2-.6-2.7.4a70.51,70.51,0,0,1-5.1,6c-2.2,2.5-4.4,5.1-6.8,7.5-1.2,1.2-2.6,3-4.2,3.7-.2.1-.9.3-.9.4h0a9.91,9.91,0,0,1-.2-1.8,14.66,14.66,0,0,1,.5-4.2,21.59,21.59,0,0,0,.6-4l-.5.7c.5-1.4,1.2-2.8,1.8-4.3a15.12,15.12,0,0,0-3.1,6.2,24.59,24.59,0,0,0-1.3,4.9c-.1-2.5,1.1-5.9,1.7-7.4a67.66,67.66,0,0,1,2.8-7.5c2.1-4.2,7.3-8.5,4.9-13.7-2.2-4.9-6.2-4.5-9-1.2-1.3,1.6-12.1,19.7-11.8,19.9,0,0,.9-1.4,2.1-3.5L288.41,60c-.1,0,.8-2,.7-2.1s-.8.8-.8,1.2c-.1-2.3.4-4.7.3-7a19.27,19.27,0,0,1-.1-2.4,27.09,27.09,0,0,1,1-4.3c.3-.9,1.1-1.8,1.2-2.7.3-1.5.1-2,.9-3.3s1.9-2.4,2.5-3.5c1.5-2.9-1.9-4.4-3.6-4.5a6.54,6.54,0,0,0-4.1.9c-1.3,1-.9,1.8-1.1,3-.1,1.6-1,3.4-1.4,4.9-.6,2.4-1.1,4.8-1.5,7.1a62.75,62.75,0,0,0-1.5,7,32.45,32.45,0,0,0,0,5.4c0,2-.1,3.3,1.1,4.9s4.6,4.2,6.3,1.5l.5.8c1.3-4.2,3.7-8.2,5.5-12.4.8-1.9,2.3-3.3,3.5-5.3,1.6-2.8,3-5.7,4.9-8.4a15.19,15.19,0,0,0-1.2,3.3c.2-.1.3-.4.5-.6l-1.1,3.2c-.1-.1.3-.9.1-.9-.8-.1-2.3,6.2-2.4,6.8a29,29,0,0,0-.2,7.2c0,1.2,0,2.4.1,3.6a8.94,8.94,0,0,0,1.1,3.5,7,7,0,0,0,1.6,1.9c.1,0,1.4.9.8.1l.7.6-.4-.2c0,.6,4.2,2.2,4.9,2.4,3.2.6,6-3.3,7.7-5.6,2.2-3.1,4-6.7,6-10C321.91,54.53,325.61,50.33,324.81,47.83Z" transform="translate(2.89)"/>
      <g class="cls-12">
        <g class="cls-13">
          <g class="cls-13">
            <path class="cls-11" d="M239,40.78c2.7-.5,6.6.8,13.2,3.3-6.5-2.9-10.1-4.6-11.7-6.9,1.2-1.2,3.3-2.3,6.5-3.9a32.62,32.62,0,0,1-7.3,1.9c-.5-2.7.8-6.6,3.3-13.2-2.9,6.5-4.6,10.1-6.9,11.7-1.2-1.2-2.3-3.3-3.9-6.5a32.62,32.62,0,0,1,1.9,7.3c-2.7.5-6.6-.8-13.2-3.3,6.5,2.9,10.1,4.6,11.7,6.9-1.2,1.2-3.3,2.3-6.5,3.9a32.62,32.62,0,0,1,7.3-1.9c.5,2.7-.8,6.6-3.3,13.2,2.9-6.5,4.6-10.1,6.9-11.7,1.2,1.2,2.3,3.3,3.9,6.5A32.62,32.62,0,0,1,239,40.78Z" transform="translate(2.89)"/>
          </g>
        </g>
      </g>
      <g class="cls-14">
        <g class="cls-15">
          <path d="M27.51,36.78h8.9v8.6h-8.9Z" transform="translate(2.89)"/>
        </g>
      </g>
      <g class="cls-16">
        <g class="cls-17">
          <path d="M40.41,24.48h20.9v13.4H40.41Z" transform="translate(2.89)"/>
        </g>
      </g>
      <g class="cls-18">
        <g class="cls-19">
          <path d="M-2.89,92.38H8.41v27.4H-2.89Z" transform="translate(2.89)"/>
        </g>
      </g>
      <g class="cls-20">
        <g class="cls-21">
          <path d="M65.71,56.28h19.6v18.8H65.71Z" transform="translate(2.89)"/>
        </g>
      </g>
      <g class="cls-22">
        <g class="cls-23">
          <path d="M77.81,85.58h13.8v15.3H77.81Z" transform="translate(2.89)"/>
        </g>
      </g>
      <g class="cls-24">
        <g class="cls-25">
          <path d="M120,82.38h13.3v26.4H120Z" transform="translate(2.89)"/>
        </g>
      </g>
      <g class="cls-26">
        <g>
          <path d="M160.81,16.38c8.8-3.1,11.6-2.5,13.2-1.7a5.27,5.27,0,0,1,2.6,2.5c.8,1.5,1.3,5.6.8,6.3-.2.3-1,.1-1,.1h1s-.7.2-1-.1c-.6-.6.1-4.1-.5-5.5a4.91,4.91,0,0,0-2.2-2.3,12.05,12.05,0,0,0-6.4-1c-2.1.3-5.3,3-6.1,2.7-.3-.2-.4-1-.4-1" transform="translate(2.89)"/>
          <g class="cls-27">
            <path d="M156.81,9.58h24.5v17.9h-24.5Z" transform="translate(2.89)"/>
          </g>
        </g>
      </g>
      <g class="cls-28">
        <g class="cls-29">
          <path d="M198.71,39.18h19.4v16.2h-19.4Z" transform="translate(2.89)"/>
        </g>
      </g>
      <g class="cls-30">
        <g class="cls-31">
          <path d="M194.11,1.78h15.3v15h-15.3Z" transform="translate(2.89)"/>
        </g>
      </g>
      <g class="cls-32">
        <g class="cls-33">
          <path d="M261.91,61.08h14.8v13h-14.8Z" transform="translate(2.89)"/>
        </g>
      </g>
      <g class="cls-34">
        <g class="cls-35">
          <path d="M282.41,31.68h14.3v20.6h-14.3Z" transform="translate(2.89)"/>
        </g>
      </g>
    </g>
  </g>
</svg>
